<mxfile host="app.diagrams.net" agent="Mozilla/5.0 (Windows NT 10.0; Win64; x64) AppleWebKit/537.36 (KHTML, like Gecko) Chrome/130.0.0.0 Safari/537.36" version="24.8.4">
  <diagram name="Σελίδα-1" id="qbzgmHOInSNb4eMY_Fp2">
    <mxGraphModel dx="2074" dy="738" grid="1" gridSize="10" guides="1" tooltips="1" connect="1" arrows="1" fold="1" page="1" pageScale="1" pageWidth="827" pageHeight="1169" math="0" shadow="0">
      <root>
        <mxCell id="0" />
        <mxCell id="1" parent="0" />
        <mxCell id="HSvkQyXQBypPWw5m_nFr-117" value="" style="rounded=0;whiteSpace=wrap;html=1;" parent="1" vertex="1">
          <mxGeometry x="10" y="30" width="560" height="610" as="geometry" />
        </mxCell>
        <mxCell id="pVU6B8DjynMSReq9NZzx-178" value="&lt;font color=&quot;#ff7661&quot;&gt;Incrementer&amp;nbsp; &amp;nbsp; &amp;nbsp; &amp;nbsp; &amp;nbsp; &amp;nbsp; &amp;nbsp; &amp;nbsp; &amp;nbsp; &amp;nbsp; &amp;nbsp; &amp;nbsp; &amp;nbsp; &amp;nbsp; &amp;nbsp; &amp;nbsp; &amp;nbsp; &amp;nbsp; &amp;nbsp; &amp;nbsp; &amp;nbsp; &amp;nbsp; &amp;nbsp; &amp;nbsp; &amp;nbsp; &amp;nbsp; &amp;nbsp; &amp;nbsp; &amp;nbsp; &amp;nbsp; &amp;nbsp; &amp;nbsp; &amp;nbsp; &amp;nbsp; &amp;nbsp; &amp;nbsp; &amp;nbsp; &amp;nbsp; &amp;nbsp; &amp;nbsp; &amp;nbsp; &amp;nbsp; &amp;nbsp; &amp;nbsp; &amp;nbsp; &amp;nbsp; &amp;nbsp; &amp;nbsp; &amp;nbsp; &amp;nbsp; &amp;nbsp;&lt;/font&gt;&lt;div&gt;&lt;font color=&quot;#ff7661&quot;&gt;&lt;br&gt;&lt;/font&gt;&lt;div&gt;&lt;font color=&quot;#ff7661&quot;&gt;&lt;br&gt;&lt;/font&gt;&lt;/div&gt;&lt;div&gt;&lt;font color=&quot;#ff7661&quot;&gt;&lt;br&gt;&lt;/font&gt;&lt;/div&gt;&lt;div&gt;&lt;font color=&quot;#ff7661&quot;&gt;&lt;br&gt;&lt;/font&gt;&lt;/div&gt;&lt;div&gt;&lt;font color=&quot;#ff7661&quot;&gt;&lt;br&gt;&lt;/font&gt;&lt;/div&gt;&lt;div&gt;&lt;font color=&quot;#ff7661&quot;&gt;&lt;br&gt;&lt;/font&gt;&lt;/div&gt;&lt;div&gt;&lt;font color=&quot;#ff7661&quot;&gt;&lt;br&gt;&lt;/font&gt;&lt;/div&gt;&lt;div&gt;&lt;font color=&quot;#ff7661&quot;&gt;&lt;br&gt;&lt;/font&gt;&lt;/div&gt;&lt;div&gt;&lt;font color=&quot;#ff7661&quot;&gt;&lt;br&gt;&lt;/font&gt;&lt;/div&gt;&lt;div&gt;&lt;font color=&quot;#ff7661&quot;&gt;&lt;br&gt;&lt;/font&gt;&lt;/div&gt;&lt;div&gt;&lt;font color=&quot;#ff7661&quot;&gt;&lt;br&gt;&lt;/font&gt;&lt;/div&gt;&lt;div&gt;&lt;font color=&quot;#ff7661&quot;&gt;&lt;br&gt;&lt;/font&gt;&lt;/div&gt;&lt;div&gt;&lt;font color=&quot;#ff7661&quot;&gt;&lt;br&gt;&lt;/font&gt;&lt;/div&gt;&lt;div&gt;&lt;font color=&quot;#ff7661&quot;&gt;&lt;br&gt;&lt;/font&gt;&lt;/div&gt;&lt;div&gt;&lt;font color=&quot;#ff7661&quot;&gt;&lt;br&gt;&lt;/font&gt;&lt;/div&gt;&lt;/div&gt;" style="rounded=0;whiteSpace=wrap;html=1;" parent="1" vertex="1">
          <mxGeometry x="382.99999999999994" y="663" width="415" height="240" as="geometry" />
        </mxCell>
        <mxCell id="pVU6B8DjynMSReq9NZzx-181" style="edgeStyle=orthogonalEdgeStyle;rounded=0;orthogonalLoop=1;jettySize=auto;html=1;exitX=1;exitY=0.5;exitDx=0;exitDy=0;endArrow=none;endFill=0;" parent="1" source="pVU6B8DjynMSReq9NZzx-178" edge="1">
          <mxGeometry relative="1" as="geometry">
            <mxPoint x="715.9200000000001" y="802.5" as="targetPoint" />
            <Array as="points">
              <mxPoint x="785.9200000000001" y="787.5" />
              <mxPoint x="785.9200000000001" y="802.5" />
            </Array>
          </mxGeometry>
        </mxCell>
        <mxCell id="pVU6B8DjynMSReq9NZzx-182" style="edgeStyle=orthogonalEdgeStyle;rounded=0;orthogonalLoop=1;jettySize=auto;html=1;exitX=0;exitY=0.5;exitDx=0;exitDy=0;entryX=0;entryY=0.5;entryDx=0;entryDy=0;endArrow=none;endFill=0;" parent="1" source="pVU6B8DjynMSReq9NZzx-178" target="pVU6B8DjynMSReq9NZzx-150" edge="1">
          <mxGeometry relative="1" as="geometry">
            <Array as="points">
              <mxPoint x="405.91999999999996" y="782.5" />
              <mxPoint x="405.91999999999996" y="787.5" />
            </Array>
          </mxGeometry>
        </mxCell>
        <mxCell id="pVU6B8DjynMSReq9NZzx-8" value="&lt;div&gt;&lt;br&gt;&lt;/div&gt;&lt;font color=&quot;#ff7661&quot;&gt;&amp;nbsp; &amp;nbsp;Module Counter #1&amp;nbsp; &amp;nbsp; &amp;nbsp; &amp;nbsp; &amp;nbsp; &amp;nbsp; &amp;nbsp; &amp;nbsp; &amp;nbsp; &amp;nbsp; &amp;nbsp; &amp;nbsp; &amp;nbsp; &amp;nbsp; &amp;nbsp; &amp;nbsp; &amp;nbsp; &amp;nbsp; &amp;nbsp; &amp;nbsp; &amp;nbsp; &amp;nbsp; &amp;nbsp; &amp;nbsp; &amp;nbsp; &amp;nbsp;&lt;/font&gt;&lt;div&gt;&lt;br&gt;&lt;/div&gt;&lt;div&gt;&lt;br&gt;&lt;/div&gt;&lt;div&gt;&lt;br&gt;&lt;/div&gt;&lt;div&gt;&lt;br&gt;&lt;/div&gt;&lt;div&gt;&lt;br&gt;&lt;/div&gt;&lt;div&gt;&lt;br&gt;&lt;/div&gt;&lt;div&gt;&lt;br&gt;&lt;/div&gt;&lt;div&gt;&lt;br&gt;&lt;/div&gt;&lt;div&gt;&lt;br&gt;&lt;/div&gt;&lt;div&gt;&lt;br&gt;&lt;/div&gt;&lt;div&gt;&lt;br&gt;&lt;/div&gt;&lt;div&gt;&lt;br&gt;&lt;/div&gt;&lt;div&gt;&lt;br&gt;&lt;/div&gt;&lt;div&gt;&lt;br&gt;&lt;/div&gt;" style="whiteSpace=wrap;html=1;aspect=fixed;" parent="1" vertex="1">
          <mxGeometry x="35" y="910" width="230" height="230" as="geometry" />
        </mxCell>
        <mxCell id="wYi5QQP4cXFv1H6Gll4Q-78" style="edgeStyle=orthogonalEdgeStyle;rounded=0;orthogonalLoop=1;jettySize=auto;html=1;exitX=1;exitY=0.5;exitDx=0;exitDy=0;entryX=0;entryY=0.5;entryDx=0;entryDy=0;endArrow=none;endFill=0;" parent="1" source="wYi5QQP4cXFv1H6Gll4Q-1" target="wYi5QQP4cXFv1H6Gll4Q-29" edge="1">
          <mxGeometry relative="1" as="geometry">
            <Array as="points">
              <mxPoint x="215" y="300" />
              <mxPoint x="215" y="240" />
            </Array>
          </mxGeometry>
        </mxCell>
        <mxCell id="pVU6B8DjynMSReq9NZzx-55" style="edgeStyle=orthogonalEdgeStyle;rounded=0;orthogonalLoop=1;jettySize=auto;html=1;exitX=0;exitY=0.5;exitDx=0;exitDy=0;endArrow=none;endFill=0;" parent="1" source="wYi5QQP4cXFv1H6Gll4Q-1" edge="1">
          <mxGeometry relative="1" as="geometry">
            <mxPoint x="25" y="410" as="targetPoint" />
          </mxGeometry>
        </mxCell>
        <mxCell id="wYi5QQP4cXFv1H6Gll4Q-1" value="Counter #1" style="rounded=0;whiteSpace=wrap;html=1;" parent="1" vertex="1">
          <mxGeometry x="45" y="260" width="80" height="80" as="geometry" />
        </mxCell>
        <mxCell id="wYi5QQP4cXFv1H6Gll4Q-12" value="reset_sync" style="text;html=1;align=center;verticalAlign=middle;resizable=0;points=[];autosize=1;strokeColor=none;fillColor=none;fontSize=7;" parent="1" vertex="1">
          <mxGeometry x="30" y="1005" width="60" height="20" as="geometry" />
        </mxCell>
        <mxCell id="wYi5QQP4cXFv1H6Gll4Q-26" value="new_clk" style="text;html=1;align=center;verticalAlign=middle;resizable=0;points=[];autosize=1;strokeColor=none;fillColor=none;fontSize=8;" parent="1" vertex="1">
          <mxGeometry x="60" y="340" width="50" height="20" as="geometry" />
        </mxCell>
        <mxCell id="wYi5QQP4cXFv1H6Gll4Q-79" style="edgeStyle=orthogonalEdgeStyle;rounded=0;orthogonalLoop=1;jettySize=auto;html=1;exitX=1;exitY=0.5;exitDx=0;exitDy=0;entryX=0;entryY=0.5;entryDx=0;entryDy=0;endArrow=none;endFill=0;" parent="1" source="wYi5QQP4cXFv1H6Gll4Q-29" target="wYi5QQP4cXFv1H6Gll4Q-31" edge="1">
          <mxGeometry relative="1" as="geometry" />
        </mxCell>
        <mxCell id="wYi5QQP4cXFv1H6Gll4Q-29" value="char&lt;br&gt;Decoder" style="rounded=0;whiteSpace=wrap;html=1;" parent="1" vertex="1">
          <mxGeometry x="265" y="200" width="80" height="80" as="geometry" />
        </mxCell>
        <mxCell id="wYi5QQP4cXFv1H6Gll4Q-92" style="edgeStyle=orthogonalEdgeStyle;rounded=0;orthogonalLoop=1;jettySize=auto;html=1;exitX=0;exitY=0.5;exitDx=0;exitDy=0;endArrow=none;endFill=0;" parent="1" source="wYi5QQP4cXFv1H6Gll4Q-30" edge="1">
          <mxGeometry relative="1" as="geometry">
            <mxPoint x="215" y="300" as="targetPoint" />
          </mxGeometry>
        </mxCell>
        <mxCell id="wYi5QQP4cXFv1H6Gll4Q-94" style="edgeStyle=orthogonalEdgeStyle;rounded=0;orthogonalLoop=1;jettySize=auto;html=1;exitX=1;exitY=0.5;exitDx=0;exitDy=0;endArrow=none;endFill=0;" parent="1" edge="1">
          <mxGeometry relative="1" as="geometry">
            <mxPoint x="570" y="430" as="targetPoint" />
            <mxPoint x="345" y="430" as="sourcePoint" />
          </mxGeometry>
        </mxCell>
        <mxCell id="wYi5QQP4cXFv1H6Gll4Q-30" value="anode&lt;br&gt;Decoder" style="rounded=0;whiteSpace=wrap;html=1;" parent="1" vertex="1">
          <mxGeometry x="265" y="390" width="80" height="80" as="geometry" />
        </mxCell>
        <mxCell id="wYi5QQP4cXFv1H6Gll4Q-31" value="LED&lt;br&gt;Decoder" style="rounded=0;whiteSpace=wrap;html=1;" parent="1" vertex="1">
          <mxGeometry x="415" y="200" width="80" height="80" as="geometry" />
        </mxCell>
        <mxCell id="wYi5QQP4cXFv1H6Gll4Q-63" value="" style="group" parent="1" vertex="1" connectable="0">
          <mxGeometry x="1295.92" y="89.5" width="90" height="395" as="geometry" />
        </mxCell>
        <mxCell id="wYi5QQP4cXFv1H6Gll4Q-96" style="edgeStyle=orthogonalEdgeStyle;rounded=0;orthogonalLoop=1;jettySize=auto;html=1;exitX=0.5;exitY=1;exitDx=0;exitDy=0;endArrow=none;endFill=0;" parent="wYi5QQP4cXFv1H6Gll4Q-63" source="wYi5QQP4cXFv1H6Gll4Q-42" edge="1">
          <mxGeometry relative="1" as="geometry">
            <mxPoint x="-20" y="270" as="targetPoint" />
            <Array as="points">
              <mxPoint x="40" y="90" />
              <mxPoint x="-20" y="90" />
            </Array>
          </mxGeometry>
        </mxCell>
        <mxCell id="wYi5QQP4cXFv1H6Gll4Q-42" value="" style="whiteSpace=wrap;html=1;aspect=fixed;" parent="wYi5QQP4cXFv1H6Gll4Q-63" vertex="1">
          <mxGeometry width="80" height="80" as="geometry" />
        </mxCell>
        <mxCell id="wYi5QQP4cXFv1H6Gll4Q-38" value="" style="verticalLabelPosition=bottom;shadow=0;dashed=0;align=center;html=1;verticalAlign=top;shape=mxgraph.electrical.opto_electronics.7_segment_display_with_dp;pointerEvents=1;" parent="wYi5QQP4cXFv1H6Gll4Q-63" vertex="1">
          <mxGeometry x="20" y="16.549999999999983" width="40" height="46.9" as="geometry" />
        </mxCell>
        <mxCell id="wYi5QQP4cXFv1H6Gll4Q-86" style="edgeStyle=orthogonalEdgeStyle;rounded=0;orthogonalLoop=1;jettySize=auto;html=1;exitX=0;exitY=0.5;exitDx=0;exitDy=0;endArrow=none;endFill=0;" parent="wYi5QQP4cXFv1H6Gll4Q-63" source="wYi5QQP4cXFv1H6Gll4Q-45" edge="1">
          <mxGeometry relative="1" as="geometry">
            <mxPoint x="-60" y="70" as="targetPoint" />
          </mxGeometry>
        </mxCell>
        <mxCell id="wYi5QQP4cXFv1H6Gll4Q-97" style="edgeStyle=orthogonalEdgeStyle;rounded=0;orthogonalLoop=1;jettySize=auto;html=1;exitX=0.5;exitY=1;exitDx=0;exitDy=0;endArrow=none;endFill=0;" parent="wYi5QQP4cXFv1H6Gll4Q-63" source="wYi5QQP4cXFv1H6Gll4Q-45" edge="1">
          <mxGeometry relative="1" as="geometry">
            <mxPoint x="-20" y="200" as="targetPoint" />
            <Array as="points">
              <mxPoint x="40" y="200" />
            </Array>
          </mxGeometry>
        </mxCell>
        <mxCell id="wYi5QQP4cXFv1H6Gll4Q-45" value="" style="whiteSpace=wrap;html=1;aspect=fixed;" parent="wYi5QQP4cXFv1H6Gll4Q-63" vertex="1">
          <mxGeometry y="103.44999999999999" width="80" height="80" as="geometry" />
        </mxCell>
        <mxCell id="wYi5QQP4cXFv1H6Gll4Q-46" value="" style="verticalLabelPosition=bottom;shadow=0;dashed=0;align=center;html=1;verticalAlign=top;shape=mxgraph.electrical.opto_electronics.7_segment_display_with_dp;pointerEvents=1;" parent="wYi5QQP4cXFv1H6Gll4Q-63" vertex="1">
          <mxGeometry x="20" y="120" width="40" height="46.9" as="geometry" />
        </mxCell>
        <mxCell id="wYi5QQP4cXFv1H6Gll4Q-87" style="edgeStyle=orthogonalEdgeStyle;rounded=0;orthogonalLoop=1;jettySize=auto;html=1;exitX=0;exitY=0.5;exitDx=0;exitDy=0;endArrow=none;endFill=0;" parent="wYi5QQP4cXFv1H6Gll4Q-63" source="wYi5QQP4cXFv1H6Gll4Q-47" edge="1">
          <mxGeometry relative="1" as="geometry">
            <mxPoint x="-60" y="130" as="targetPoint" />
          </mxGeometry>
        </mxCell>
        <mxCell id="wYi5QQP4cXFv1H6Gll4Q-95" style="edgeStyle=orthogonalEdgeStyle;rounded=0;orthogonalLoop=1;jettySize=auto;html=1;exitX=0.5;exitY=1;exitDx=0;exitDy=0;endArrow=none;endFill=0;" parent="wYi5QQP4cXFv1H6Gll4Q-63" source="wYi5QQP4cXFv1H6Gll4Q-47" edge="1">
          <mxGeometry relative="1" as="geometry">
            <mxPoint x="-30" y="270" as="targetPoint" />
            <Array as="points">
              <mxPoint x="40" y="300" />
              <mxPoint x="-20" y="300" />
              <mxPoint x="-20" y="270" />
            </Array>
          </mxGeometry>
        </mxCell>
        <mxCell id="wYi5QQP4cXFv1H6Gll4Q-47" value="" style="whiteSpace=wrap;html=1;aspect=fixed;" parent="wYi5QQP4cXFv1H6Gll4Q-63" vertex="1">
          <mxGeometry y="205" width="80" height="80" as="geometry" />
        </mxCell>
        <mxCell id="wYi5QQP4cXFv1H6Gll4Q-48" value="" style="verticalLabelPosition=bottom;shadow=0;dashed=0;align=center;html=1;verticalAlign=top;shape=mxgraph.electrical.opto_electronics.7_segment_display_with_dp;pointerEvents=1;" parent="wYi5QQP4cXFv1H6Gll4Q-63" vertex="1">
          <mxGeometry x="20" y="221.55" width="40" height="46.9" as="geometry" />
        </mxCell>
        <mxCell id="wYi5QQP4cXFv1H6Gll4Q-88" style="edgeStyle=orthogonalEdgeStyle;rounded=0;orthogonalLoop=1;jettySize=auto;html=1;exitX=0;exitY=0.5;exitDx=0;exitDy=0;endArrow=none;endFill=0;" parent="wYi5QQP4cXFv1H6Gll4Q-63" edge="1">
          <mxGeometry relative="1" as="geometry">
            <mxPoint x="-60" y="240" as="targetPoint" />
            <mxPoint y="348.45000000000005" as="sourcePoint" />
          </mxGeometry>
        </mxCell>
        <mxCell id="wYi5QQP4cXFv1H6Gll4Q-98" style="edgeStyle=orthogonalEdgeStyle;rounded=0;orthogonalLoop=1;jettySize=auto;html=1;exitX=0.5;exitY=1;exitDx=0;exitDy=0;endArrow=none;endFill=0;" parent="wYi5QQP4cXFv1H6Gll4Q-63" source="wYi5QQP4cXFv1H6Gll4Q-49" edge="1">
          <mxGeometry relative="1" as="geometry">
            <mxPoint x="-20" y="300" as="targetPoint" />
          </mxGeometry>
        </mxCell>
        <mxCell id="wYi5QQP4cXFv1H6Gll4Q-49" value="" style="whiteSpace=wrap;html=1;aspect=fixed;" parent="wYi5QQP4cXFv1H6Gll4Q-63" vertex="1">
          <mxGeometry y="308.45" width="80" height="80" as="geometry" />
        </mxCell>
        <mxCell id="wYi5QQP4cXFv1H6Gll4Q-50" value="" style="verticalLabelPosition=bottom;shadow=0;dashed=0;align=center;html=1;verticalAlign=top;shape=mxgraph.electrical.opto_electronics.7_segment_display_with_dp;pointerEvents=1;" parent="wYi5QQP4cXFv1H6Gll4Q-63" vertex="1">
          <mxGeometry x="20" y="325" width="40" height="46.9" as="geometry" />
        </mxCell>
        <mxCell id="wYi5QQP4cXFv1H6Gll4Q-138" value="&lt;font color=&quot;#878787&quot;&gt;&lt;i&gt;AN1&lt;/i&gt;&lt;/font&gt;" style="text;html=1;align=center;verticalAlign=middle;resizable=0;points=[];autosize=1;strokeColor=none;fillColor=none;" parent="wYi5QQP4cXFv1H6Gll4Q-63" vertex="1">
          <mxGeometry x="40" y="160" width="50" height="30" as="geometry" />
        </mxCell>
        <mxCell id="wYi5QQP4cXFv1H6Gll4Q-139" value="&lt;font color=&quot;#878787&quot;&gt;&lt;i&gt;AN2&lt;/i&gt;&lt;/font&gt;" style="text;html=1;align=center;verticalAlign=middle;resizable=0;points=[];autosize=1;strokeColor=none;fillColor=none;" parent="wYi5QQP4cXFv1H6Gll4Q-63" vertex="1">
          <mxGeometry x="40" y="260" width="50" height="30" as="geometry" />
        </mxCell>
        <mxCell id="wYi5QQP4cXFv1H6Gll4Q-140" value="&lt;font color=&quot;#878787&quot;&gt;&lt;i&gt;AN3&lt;/i&gt;&lt;/font&gt;" style="text;html=1;align=center;verticalAlign=middle;resizable=0;points=[];autosize=1;strokeColor=none;fillColor=none;" parent="wYi5QQP4cXFv1H6Gll4Q-63" vertex="1">
          <mxGeometry x="40" y="365" width="50" height="30" as="geometry" />
        </mxCell>
        <mxCell id="wYi5QQP4cXFv1H6Gll4Q-85" style="edgeStyle=orthogonalEdgeStyle;rounded=0;orthogonalLoop=1;jettySize=auto;html=1;exitX=0;exitY=0.5;exitDx=0;exitDy=0;endArrow=none;endFill=0;entryX=1;entryY=0.5;entryDx=0;entryDy=0;" parent="1" source="wYi5QQP4cXFv1H6Gll4Q-42" target="HSvkQyXQBypPWw5m_nFr-152" edge="1">
          <mxGeometry relative="1" as="geometry">
            <Array as="points">
              <mxPoint x="1235.92" y="129.5" />
              <mxPoint x="1235.92" y="166.5" />
              <mxPoint x="1190.92" y="166.5" />
              <mxPoint x="1190.92" y="199.5" />
            </Array>
            <mxPoint x="1200.92" y="169.5" as="targetPoint" />
          </mxGeometry>
        </mxCell>
        <mxCell id="wYi5QQP4cXFv1H6Gll4Q-102" value="" style="verticalLabelPosition=bottom;shadow=0;dashed=0;align=center;html=1;verticalAlign=top;shape=mxgraph.electrical.logic_gates.buffer2;direction=north;movable=1;resizable=1;rotatable=1;deletable=1;editable=1;locked=0;connectable=1;" parent="1" vertex="1">
          <mxGeometry x="82.5" y="330" width="5" height="15" as="geometry" />
        </mxCell>
        <mxCell id="wYi5QQP4cXFv1H6Gll4Q-111" style="edgeStyle=orthogonalEdgeStyle;rounded=0;orthogonalLoop=1;jettySize=auto;html=1;exitX=1;exitY=0.5;exitDx=0;exitDy=0;endArrow=none;endFill=0;entryX=1.001;entryY=0.345;entryDx=0;entryDy=0;entryPerimeter=0;" parent="1" source="wYi5QQP4cXFv1H6Gll4Q-31" target="HSvkQyXQBypPWw5m_nFr-117" edge="1">
          <mxGeometry relative="1" as="geometry">
            <mxPoint x="550" y="241" as="targetPoint" />
            <Array as="points">
              <mxPoint x="550" y="240" />
            </Array>
          </mxGeometry>
        </mxCell>
        <mxCell id="wYi5QQP4cXFv1H6Gll4Q-114" value="&lt;font color=&quot;#878787&quot;&gt;&lt;i&gt;Part A decoder&amp;nbsp;&lt;/i&gt;&lt;/font&gt;&lt;div&gt;&lt;font color=&quot;#878787&quot;&gt;&lt;i&gt;4 bit for now&lt;/i&gt;&lt;/font&gt;&lt;/div&gt;" style="text;html=1;align=center;verticalAlign=middle;resizable=0;points=[];autosize=1;strokeColor=none;fillColor=none;" parent="1" vertex="1">
          <mxGeometry x="400" y="160" width="110" height="40" as="geometry" />
        </mxCell>
        <mxCell id="wYi5QQP4cXFv1H6Gll4Q-115" value="&lt;div&gt;&amp;nbsp; &amp;nbsp;4&lt;/div&gt;/" style="text;html=1;align=center;verticalAlign=middle;resizable=0;points=[];autosize=1;strokeColor=none;fillColor=none;" parent="1" vertex="1">
          <mxGeometry x="220" y="215.5" width="40" height="40" as="geometry" />
        </mxCell>
        <mxCell id="wYi5QQP4cXFv1H6Gll4Q-121" value="&lt;div&gt;&amp;nbsp; &amp;nbsp;4&lt;/div&gt;/" style="text;html=1;align=center;verticalAlign=middle;resizable=0;points=[];autosize=1;strokeColor=none;fillColor=none;" parent="1" vertex="1">
          <mxGeometry x="360" y="212.5" width="40" height="40" as="geometry" />
        </mxCell>
        <mxCell id="wYi5QQP4cXFv1H6Gll4Q-122" value="&lt;div&gt;&amp;nbsp; &amp;nbsp;7&lt;/div&gt;/" style="text;html=1;align=center;verticalAlign=middle;resizable=0;points=[];autosize=1;strokeColor=none;fillColor=none;" parent="1" vertex="1">
          <mxGeometry x="505" y="212.5" width="40" height="40" as="geometry" />
        </mxCell>
        <mxCell id="wYi5QQP4cXFv1H6Gll4Q-123" value="&lt;div&gt;&amp;nbsp; &amp;nbsp;4&lt;/div&gt;/" style="text;html=1;align=center;verticalAlign=middle;resizable=0;points=[];autosize=1;strokeColor=none;fillColor=none;" parent="1" vertex="1">
          <mxGeometry x="440" y="402" width="40" height="40" as="geometry" />
        </mxCell>
        <mxCell id="wYi5QQP4cXFv1H6Gll4Q-126" value="&lt;div&gt;&amp;nbsp; &amp;nbsp;4&lt;/div&gt;/" style="text;html=1;align=center;verticalAlign=middle;resizable=0;points=[];autosize=1;strokeColor=none;fillColor=none;" parent="1" vertex="1">
          <mxGeometry x="215" y="403" width="40" height="40" as="geometry" />
        </mxCell>
        <mxCell id="wYi5QQP4cXFv1H6Gll4Q-127" value="&lt;div&gt;&amp;nbsp; &amp;nbsp;4&lt;/div&gt;/" style="text;html=1;align=center;verticalAlign=middle;resizable=0;points=[];autosize=1;strokeColor=none;fillColor=none;" parent="1" vertex="1">
          <mxGeometry x="130" y="270" width="40" height="40" as="geometry" />
        </mxCell>
        <mxCell id="wYi5QQP4cXFv1H6Gll4Q-128" value="&lt;div&gt;&amp;nbsp; &amp;nbsp;7&lt;/div&gt;/" style="text;html=1;align=center;verticalAlign=middle;resizable=0;points=[];autosize=1;strokeColor=none;fillColor=none;" parent="1" vertex="1">
          <mxGeometry x="1235.92" y="205" width="40" height="40" as="geometry" />
        </mxCell>
        <mxCell id="wYi5QQP4cXFv1H6Gll4Q-129" value="&lt;div&gt;&amp;nbsp; &amp;nbsp;7&lt;/div&gt;/" style="text;html=1;align=center;verticalAlign=middle;resizable=0;points=[];autosize=1;strokeColor=none;fillColor=none;" parent="1" vertex="1">
          <mxGeometry x="1235.92" y="102" width="40" height="40" as="geometry" />
        </mxCell>
        <mxCell id="wYi5QQP4cXFv1H6Gll4Q-131" value="&lt;div&gt;&amp;nbsp; &amp;nbsp;7&lt;/div&gt;/" style="text;html=1;align=center;verticalAlign=middle;resizable=0;points=[];autosize=1;strokeColor=none;fillColor=none;" parent="1" vertex="1">
          <mxGeometry x="1235.92" y="306.5" width="40" height="40" as="geometry" />
        </mxCell>
        <mxCell id="wYi5QQP4cXFv1H6Gll4Q-132" value="&lt;div&gt;&amp;nbsp; &amp;nbsp;7&lt;/div&gt;/" style="text;html=1;align=center;verticalAlign=middle;resizable=0;points=[];autosize=1;strokeColor=none;fillColor=none;" parent="1" vertex="1">
          <mxGeometry x="1235.92" y="410.5" width="40" height="40" as="geometry" />
        </mxCell>
        <mxCell id="wYi5QQP4cXFv1H6Gll4Q-133" value="&lt;div&gt;&amp;nbsp; &amp;nbsp;1&lt;/div&gt;/" style="text;html=1;align=center;verticalAlign=middle;resizable=0;points=[];autosize=1;strokeColor=none;fillColor=none;" parent="1" vertex="1">
          <mxGeometry x="1265.92" y="151.5" width="40" height="40" as="geometry" />
        </mxCell>
        <mxCell id="wYi5QQP4cXFv1H6Gll4Q-134" value="&lt;div&gt;&amp;nbsp; &amp;nbsp;1&lt;/div&gt;/" style="text;html=1;align=center;verticalAlign=middle;resizable=0;points=[];autosize=1;strokeColor=none;fillColor=none;" parent="1" vertex="1">
          <mxGeometry x="1265.92" y="263.73" width="40" height="40" as="geometry" />
        </mxCell>
        <mxCell id="wYi5QQP4cXFv1H6Gll4Q-135" value="&lt;div&gt;&amp;nbsp; &amp;nbsp;1&lt;/div&gt;/" style="text;html=1;align=center;verticalAlign=middle;resizable=0;points=[];autosize=1;strokeColor=none;fillColor=none;" parent="1" vertex="1">
          <mxGeometry x="1265.92" y="361.5" width="40" height="40" as="geometry" />
        </mxCell>
        <mxCell id="wYi5QQP4cXFv1H6Gll4Q-136" value="&lt;div&gt;&amp;nbsp; &amp;nbsp;1&lt;/div&gt;/" style="text;html=1;align=center;verticalAlign=middle;resizable=0;points=[];autosize=1;strokeColor=none;fillColor=none;" parent="1" vertex="1">
          <mxGeometry x="1265.92" y="470.5" width="40" height="40" as="geometry" />
        </mxCell>
        <mxCell id="wYi5QQP4cXFv1H6Gll4Q-137" value="&lt;font color=&quot;#878787&quot;&gt;&lt;i&gt;AN0&lt;/i&gt;&lt;/font&gt;" style="text;html=1;align=center;verticalAlign=middle;resizable=0;points=[];autosize=1;strokeColor=none;fillColor=none;" parent="1" vertex="1">
          <mxGeometry x="1335.92" y="147" width="50" height="30" as="geometry" />
        </mxCell>
        <mxCell id="wYi5QQP4cXFv1H6Gll4Q-141" value="&lt;i&gt;&lt;font color=&quot;#878787&quot;&gt;anode Dec Logic will stay&amp;nbsp;&amp;nbsp;&lt;/font&gt;&lt;/i&gt;&lt;div&gt;&lt;i&gt;&lt;font color=&quot;#878787&quot;&gt;the same throughout the Lab&lt;/font&gt;&lt;/i&gt;&lt;/div&gt;" style="text;html=1;align=center;verticalAlign=middle;resizable=0;points=[];autosize=1;strokeColor=none;fillColor=none;" parent="1" vertex="1">
          <mxGeometry x="220" y="480" width="180" height="40" as="geometry" />
        </mxCell>
        <mxCell id="wYi5QQP4cXFv1H6Gll4Q-142" value="&lt;font color=&quot;#878787&quot;&gt;&lt;i&gt;Synchronise Decoder&lt;br&gt;output&lt;/i&gt;&lt;/font&gt;" style="text;html=1;align=center;verticalAlign=middle;resizable=0;points=[];autosize=1;strokeColor=none;fillColor=none;" parent="1" vertex="1">
          <mxGeometry x="410.92" y="351.5" width="140" height="40" as="geometry" />
        </mxCell>
        <mxCell id="pVU6B8DjynMSReq9NZzx-1" value="&lt;font color=&quot;#878787&quot;&gt;&lt;i&gt;Synchronise Clock&lt;br&gt;&lt;/i&gt;&lt;/font&gt;" style="text;html=1;align=center;verticalAlign=middle;resizable=0;points=[];autosize=1;strokeColor=none;fillColor=none;" parent="1" vertex="1">
          <mxGeometry x="70" y="595" width="120" height="30" as="geometry" />
        </mxCell>
        <mxCell id="pVU6B8DjynMSReq9NZzx-46" style="edgeStyle=orthogonalEdgeStyle;rounded=0;orthogonalLoop=1;jettySize=auto;html=1;exitX=1;exitY=0.5;exitDx=0;exitDy=0;endArrow=none;endFill=0;" parent="1" source="pVU6B8DjynMSReq9NZzx-8" edge="1">
          <mxGeometry relative="1" as="geometry">
            <mxPoint x="200" y="1049.9999999999998" as="targetPoint" />
            <Array as="points">
              <mxPoint x="240" y="1025" />
              <mxPoint x="240" y="1050" />
            </Array>
          </mxGeometry>
        </mxCell>
        <mxCell id="pVU6B8DjynMSReq9NZzx-6" value="" style="verticalLabelPosition=bottom;shadow=0;dashed=0;align=center;html=1;verticalAlign=top;shape=mxgraph.electrical.logic_gates.buffer2;direction=north;movable=1;resizable=1;rotatable=1;deletable=1;editable=1;locked=0;connectable=1;" parent="1" vertex="1">
          <mxGeometry x="145" y="1120" width="15" height="25" as="geometry" />
        </mxCell>
        <mxCell id="pVU6B8DjynMSReq9NZzx-40" style="edgeStyle=orthogonalEdgeStyle;rounded=0;orthogonalLoop=1;jettySize=auto;html=1;exitX=0;exitY=0.5;exitDx=0;exitDy=0;entryX=0;entryY=0.5;entryDx=0;entryDy=0;endArrow=none;endFill=0;" parent="1" source="pVU6B8DjynMSReq9NZzx-11" target="pVU6B8DjynMSReq9NZzx-13" edge="1">
          <mxGeometry relative="1" as="geometry" />
        </mxCell>
        <mxCell id="pVU6B8DjynMSReq9NZzx-42" style="edgeStyle=orthogonalEdgeStyle;rounded=0;orthogonalLoop=1;jettySize=auto;html=1;exitX=1;exitY=0.5;exitDx=0;exitDy=0;entryX=1;entryY=0.5;entryDx=0;entryDy=0;endArrow=none;endFill=0;" parent="1" source="pVU6B8DjynMSReq9NZzx-11" target="pVU6B8DjynMSReq9NZzx-13" edge="1">
          <mxGeometry relative="1" as="geometry">
            <Array as="points">
              <mxPoint x="200" y="1050" />
              <mxPoint x="200" y="990" />
            </Array>
          </mxGeometry>
        </mxCell>
        <mxCell id="pVU6B8DjynMSReq9NZzx-11" value="&lt;font style=&quot;font-size: 10px;&quot;&gt;D&lt;/font&gt;&lt;font style=&quot;&quot;&gt;&lt;span style=&quot;font-size: 11px;&quot;&gt;&amp;nbsp; &amp;nbsp; &amp;nbsp; &lt;/span&gt;&lt;font style=&quot;font-size: 10px;&quot;&gt;&amp;nbsp;Q&lt;/font&gt;&lt;/font&gt;" style="rounded=0;whiteSpace=wrap;html=1;movable=1;resizable=1;rotatable=1;deletable=1;editable=1;locked=0;connectable=1;" parent="1" vertex="1">
          <mxGeometry x="132.5" y="1025" width="40" height="50" as="geometry" />
        </mxCell>
        <mxCell id="pVU6B8DjynMSReq9NZzx-12" value="" style="verticalLabelPosition=bottom;shadow=0;dashed=0;align=center;html=1;verticalAlign=top;shape=mxgraph.electrical.logic_gates.buffer2;direction=north;movable=1;resizable=1;rotatable=1;deletable=1;editable=1;locked=0;connectable=1;" parent="1" vertex="1">
          <mxGeometry x="150" y="1065" width="5" height="15" as="geometry" />
        </mxCell>
        <mxCell id="pVU6B8DjynMSReq9NZzx-26" style="edgeStyle=orthogonalEdgeStyle;rounded=0;orthogonalLoop=1;jettySize=auto;html=1;exitX=1;exitY=0.75;exitDx=0;exitDy=0;endArrow=none;endFill=0;" parent="1" edge="1">
          <mxGeometry relative="1" as="geometry">
            <mxPoint x="210" y="979.96" as="targetPoint" />
            <mxPoint x="172.5" y="979.76" as="sourcePoint" />
            <Array as="points">
              <mxPoint x="190" y="979.76" />
              <mxPoint x="190" y="979.76" />
            </Array>
          </mxGeometry>
        </mxCell>
        <mxCell id="pVU6B8DjynMSReq9NZzx-13" value="half&lt;br&gt;adder" style="whiteSpace=wrap;html=1;aspect=fixed;" parent="1" vertex="1">
          <mxGeometry x="132.5" y="970" width="40" height="40" as="geometry" />
        </mxCell>
        <mxCell id="pVU6B8DjynMSReq9NZzx-34" value="&lt;font style=&quot;font-size: 12px;&quot;&gt;r&lt;/font&gt;" style="text;html=1;align=center;verticalAlign=middle;resizable=0;points=[];autosize=1;strokeColor=none;fillColor=none;strokeWidth=7;" parent="1" vertex="1">
          <mxGeometry x="125" y="1050" width="30" height="30" as="geometry" />
        </mxCell>
        <mxCell id="pVU6B8DjynMSReq9NZzx-45" style="edgeStyle=orthogonalEdgeStyle;rounded=0;orthogonalLoop=1;jettySize=auto;html=1;exitX=1;exitY=0.5;exitDx=0;exitDy=0;entryX=0.916;entryY=0.943;entryDx=0;entryDy=0;entryPerimeter=0;endArrow=none;endFill=0;" parent="1" source="pVU6B8DjynMSReq9NZzx-6" target="pVU6B8DjynMSReq9NZzx-34" edge="1">
          <mxGeometry relative="1" as="geometry" />
        </mxCell>
        <mxCell id="pVU6B8DjynMSReq9NZzx-48" style="edgeStyle=orthogonalEdgeStyle;rounded=0;orthogonalLoop=1;jettySize=auto;html=1;exitX=0;exitY=0.5;exitDx=0;exitDy=0;entryX=0;entryY=0.75;entryDx=0;entryDy=0;endArrow=none;endFill=0;" parent="1" source="pVU6B8DjynMSReq9NZzx-8" target="pVU6B8DjynMSReq9NZzx-11" edge="1">
          <mxGeometry relative="1" as="geometry">
            <Array as="points">
              <mxPoint x="90" y="1025" />
              <mxPoint x="90" y="1063" />
            </Array>
          </mxGeometry>
        </mxCell>
        <mxCell id="pVU6B8DjynMSReq9NZzx-49" value="4&#39;b0001" style="text;html=1;align=center;verticalAlign=middle;resizable=0;points=[];autosize=1;strokeColor=none;fillColor=none;fontSize=7;" parent="1" vertex="1">
          <mxGeometry x="175" y="960" width="50" height="20" as="geometry" />
        </mxCell>
        <mxCell id="pVU6B8DjynMSReq9NZzx-50" value="&lt;div&gt;&amp;nbsp; &amp;nbsp;4&lt;/div&gt;/" style="text;html=1;align=center;verticalAlign=middle;resizable=0;points=[];autosize=1;strokeColor=none;fillColor=none;" parent="1" vertex="1">
          <mxGeometry x="200" y="1023" width="40" height="40" as="geometry" />
        </mxCell>
        <mxCell id="pVU6B8DjynMSReq9NZzx-51" value="&lt;div&gt;&amp;nbsp; &amp;nbsp;1&lt;/div&gt;/" style="text;html=1;align=center;verticalAlign=middle;resizable=0;points=[];autosize=1;strokeColor=none;fillColor=none;" parent="1" vertex="1">
          <mxGeometry x="60" y="998" width="40" height="40" as="geometry" />
        </mxCell>
        <mxCell id="pVU6B8DjynMSReq9NZzx-52" value="&lt;div&gt;&amp;nbsp; &amp;nbsp;4&lt;/div&gt;/" style="text;html=1;align=center;verticalAlign=middle;resizable=0;points=[];autosize=1;strokeColor=none;fillColor=none;" parent="1" vertex="1">
          <mxGeometry x="100" y="962" width="40" height="40" as="geometry" />
        </mxCell>
        <mxCell id="pVU6B8DjynMSReq9NZzx-53" value="new_clk" style="text;html=1;align=center;verticalAlign=middle;resizable=0;points=[];autosize=1;strokeColor=none;fillColor=none;fontSize=8;" parent="1" vertex="1">
          <mxGeometry x="150" y="1115" width="50" height="20" as="geometry" />
        </mxCell>
        <mxCell id="pVU6B8DjynMSReq9NZzx-56" value="debounced_res" style="text;html=1;align=center;verticalAlign=middle;resizable=0;points=[];autosize=1;strokeColor=none;fillColor=none;fontSize=8;rotation=-90;" parent="1" vertex="1">
          <mxGeometry x="-5" y="391" width="80" height="20" as="geometry" />
        </mxCell>
        <mxCell id="pVU6B8DjynMSReq9NZzx-58" value=". . ." style="text;html=1;align=center;verticalAlign=middle;resizable=0;points=[];autosize=1;strokeColor=none;fillColor=none;rotation=90;" parent="1" vertex="1">
          <mxGeometry x="9" y="411" width="40" height="30" as="geometry" />
        </mxCell>
        <mxCell id="pVU6B8DjynMSReq9NZzx-108" value="&lt;div&gt;&lt;font color=&quot;#ff7661&quot;&gt;Debouncer&amp;nbsp; &amp;nbsp; &amp;nbsp; &amp;nbsp; &amp;nbsp; &amp;nbsp; &amp;nbsp; &amp;nbsp; &amp;nbsp; &amp;nbsp; &amp;nbsp; &amp;nbsp; &amp;nbsp; &amp;nbsp; &amp;nbsp; &amp;nbsp; &amp;nbsp; &amp;nbsp; &amp;nbsp; &amp;nbsp; &amp;nbsp; &amp;nbsp; &amp;nbsp; &amp;nbsp; &amp;nbsp; &amp;nbsp; &amp;nbsp; &amp;nbsp; &amp;nbsp; &amp;nbsp; &amp;nbsp; &amp;nbsp; &amp;nbsp; &amp;nbsp; &amp;nbsp; &amp;nbsp; &amp;nbsp; &amp;nbsp; &amp;nbsp; &amp;nbsp; &amp;nbsp; &amp;nbsp; &amp;nbsp; &amp;nbsp; &amp;nbsp; &amp;nbsp; &amp;nbsp; &amp;nbsp; &amp;nbsp; &amp;nbsp; &amp;nbsp; &amp;nbsp; &amp;nbsp; &amp;nbsp; &amp;nbsp; &amp;nbsp; &amp;nbsp; &amp;nbsp; &amp;nbsp; &amp;nbsp; &amp;nbsp; &amp;nbsp; &amp;nbsp; &amp;nbsp; &amp;nbsp;&amp;nbsp;&lt;/font&gt;&lt;/div&gt;&lt;div&gt;&lt;br&gt;&lt;/div&gt;&lt;div&gt;&lt;br&gt;&lt;/div&gt;&lt;div&gt;&lt;br&gt;&lt;/div&gt;&lt;div&gt;&lt;br&gt;&lt;/div&gt;&lt;div&gt;&lt;br&gt;&lt;/div&gt;&lt;div&gt;&lt;br&gt;&lt;/div&gt;&lt;div&gt;&lt;br&gt;&lt;/div&gt;&lt;div&gt;&lt;br&gt;&lt;/div&gt;&lt;div&gt;&lt;br&gt;&lt;/div&gt;&lt;div&gt;&lt;br&gt;&lt;/div&gt;&lt;div&gt;&lt;br&gt;&lt;/div&gt;&lt;div&gt;&lt;br&gt;&lt;/div&gt;&lt;div&gt;&lt;br&gt;&lt;/div&gt;&lt;div&gt;&lt;br&gt;&lt;/div&gt;" style="rounded=0;whiteSpace=wrap;html=1;" parent="1" vertex="1">
          <mxGeometry x="278" y="910" width="520" height="230" as="geometry" />
        </mxCell>
        <mxCell id="pVU6B8DjynMSReq9NZzx-113" style="edgeStyle=orthogonalEdgeStyle;rounded=0;orthogonalLoop=1;jettySize=auto;html=1;exitX=1;exitY=0.5;exitDx=0;exitDy=0;entryX=0;entryY=0.5;entryDx=0;entryDy=0;endArrow=none;endFill=0;" parent="1" source="pVU6B8DjynMSReq9NZzx-109" target="pVU6B8DjynMSReq9NZzx-63" edge="1">
          <mxGeometry relative="1" as="geometry">
            <Array as="points">
              <mxPoint x="528" y="1040" />
              <mxPoint x="355" y="1040" />
            </Array>
          </mxGeometry>
        </mxCell>
        <mxCell id="pVU6B8DjynMSReq9NZzx-109" value="" style="verticalLabelPosition=bottom;shadow=0;dashed=0;align=center;html=1;verticalAlign=top;shape=mxgraph.electrical.logic_gates.buffer2;direction=north;movable=1;resizable=1;rotatable=1;deletable=1;editable=1;locked=0;connectable=1;" parent="1" vertex="1">
          <mxGeometry x="520" y="1120" width="15" height="25" as="geometry" />
        </mxCell>
        <mxCell id="pVU6B8DjynMSReq9NZzx-110" value="clk" style="text;html=1;align=center;verticalAlign=middle;resizable=0;points=[];autosize=1;strokeColor=none;fillColor=none;fontSize=8;" parent="1" vertex="1">
          <mxGeometry x="523" y="1115" width="30" height="20" as="geometry" />
        </mxCell>
        <mxCell id="pVU6B8DjynMSReq9NZzx-59" value="" style="group" parent="1" vertex="1" connectable="0">
          <mxGeometry x="335" y="947.98" width="40" height="55" as="geometry" />
        </mxCell>
        <mxCell id="pVU6B8DjynMSReq9NZzx-61" style="edgeStyle=orthogonalEdgeStyle;rounded=0;orthogonalLoop=1;jettySize=auto;html=1;exitX=1;exitY=0.5;exitDx=0;exitDy=0;endArrow=none;endFill=0;" parent="pVU6B8DjynMSReq9NZzx-59" source="pVU6B8DjynMSReq9NZzx-62" edge="1">
          <mxGeometry relative="1" as="geometry">
            <mxPoint x="60" y="25.333333333333258" as="targetPoint" />
          </mxGeometry>
        </mxCell>
        <mxCell id="pVU6B8DjynMSReq9NZzx-62" value="&lt;font style=&quot;font-size: 10px;&quot;&gt;D&lt;/font&gt;&lt;font style=&quot;&quot;&gt;&lt;span style=&quot;font-size: 11px;&quot;&gt;&amp;nbsp; &amp;nbsp; &amp;nbsp; &lt;/span&gt;&lt;font style=&quot;font-size: 10px;&quot;&gt;&amp;nbsp;Q&lt;/font&gt;&lt;/font&gt;" style="rounded=0;whiteSpace=wrap;html=1;movable=1;resizable=1;rotatable=1;deletable=1;editable=1;locked=0;connectable=1;" parent="pVU6B8DjynMSReq9NZzx-59" vertex="1">
          <mxGeometry width="40" height="50" as="geometry" />
        </mxCell>
        <mxCell id="pVU6B8DjynMSReq9NZzx-63" value="" style="verticalLabelPosition=bottom;shadow=0;dashed=0;align=center;html=1;verticalAlign=top;shape=mxgraph.electrical.logic_gates.buffer2;direction=north;movable=1;resizable=1;rotatable=1;deletable=1;editable=1;locked=0;connectable=1;" parent="pVU6B8DjynMSReq9NZzx-59" vertex="1">
          <mxGeometry x="17.5" y="40" width="5" height="15" as="geometry" />
        </mxCell>
        <mxCell id="pVU6B8DjynMSReq9NZzx-64" value="" style="group" parent="1" vertex="1" connectable="0">
          <mxGeometry x="415" y="947.98" width="40" height="55" as="geometry" />
        </mxCell>
        <mxCell id="pVU6B8DjynMSReq9NZzx-65" style="edgeStyle=orthogonalEdgeStyle;rounded=0;orthogonalLoop=1;jettySize=auto;html=1;exitX=0;exitY=0.5;exitDx=0;exitDy=0;endArrow=none;endFill=0;" parent="pVU6B8DjynMSReq9NZzx-64" source="pVU6B8DjynMSReq9NZzx-68" edge="1">
          <mxGeometry relative="1" as="geometry">
            <mxPoint x="-30" y="25.333333333333258" as="targetPoint" />
          </mxGeometry>
        </mxCell>
        <mxCell id="pVU6B8DjynMSReq9NZzx-67" value="" style="group" parent="pVU6B8DjynMSReq9NZzx-64" vertex="1" connectable="0">
          <mxGeometry width="40" height="55" as="geometry" />
        </mxCell>
        <mxCell id="pVU6B8DjynMSReq9NZzx-68" value="&lt;font style=&quot;font-size: 10px;&quot;&gt;D&lt;/font&gt;&lt;font style=&quot;&quot;&gt;&lt;span style=&quot;font-size: 11px;&quot;&gt;&amp;nbsp; &amp;nbsp; &amp;nbsp; &lt;/span&gt;&lt;font style=&quot;font-size: 10px;&quot;&gt;&amp;nbsp;Q&lt;/font&gt;&lt;/font&gt;" style="rounded=0;whiteSpace=wrap;html=1;movable=1;resizable=1;rotatable=1;deletable=1;editable=1;locked=0;connectable=1;" parent="pVU6B8DjynMSReq9NZzx-67" vertex="1">
          <mxGeometry x="10" width="40" height="50" as="geometry" />
        </mxCell>
        <mxCell id="pVU6B8DjynMSReq9NZzx-114" style="edgeStyle=orthogonalEdgeStyle;rounded=0;orthogonalLoop=1;jettySize=auto;html=1;exitX=0;exitY=0.5;exitDx=0;exitDy=0;endArrow=none;endFill=0;" parent="pVU6B8DjynMSReq9NZzx-67" source="pVU6B8DjynMSReq9NZzx-69" edge="1">
          <mxGeometry relative="1" as="geometry">
            <mxPoint x="30" y="92.01999999999998" as="targetPoint" />
          </mxGeometry>
        </mxCell>
        <mxCell id="pVU6B8DjynMSReq9NZzx-69" value="" style="verticalLabelPosition=bottom;shadow=0;dashed=0;align=center;html=1;verticalAlign=top;shape=mxgraph.electrical.logic_gates.buffer2;direction=north;movable=1;resizable=1;rotatable=1;deletable=1;editable=1;locked=0;connectable=1;" parent="pVU6B8DjynMSReq9NZzx-67" vertex="1">
          <mxGeometry x="27.5" y="40" width="5" height="15" as="geometry" />
        </mxCell>
        <mxCell id="pVU6B8DjynMSReq9NZzx-72" value="button_prime&lt;span style=&quot;color: rgba(0, 0, 0, 0); font-family: monospace; font-size: 0px; text-align: start;&quot;&gt;%3CmxGraphModel%3E%3Croot%3E%3CmxCell%20id%3D%220%22%2F%3E%3CmxCell%20id%3D%221%22%20parent%3D%220%22%2F%3E%3CmxCell%20id%3D%222%22%20value%3D%22%22%20style%3D%22group%22%20vertex%3D%221%22%20connectable%3D%220%22%20parent%3D%221%22%3E%3CmxGeometry%20x%3D%2255%22%20y%3D%22690%22%20width%3D%2240%22%20height%3D%2255%22%20as%3D%22geometry%22%2F%3E%3C%2FmxCell%3E%3CmxCell%20id%3D%223%22%20style%3D%22edgeStyle%3DorthogonalEdgeStyle%3Brounded%3D0%3BorthogonalLoop%3D1%3BjettySize%3Dauto%3Bhtml%3D1%3BexitX%3D0%3BexitY%3D0.5%3BexitDx%3D0%3BexitDy%3D0%3BendArrow%3Dnone%3BendFill%3D0%3B%22%20edge%3D%221%22%20parent%3D%222%22%20source%3D%225%22%3E%3CmxGeometry%20relative%3D%221%22%20as%3D%22geometry%22%3E%3CmxPoint%20x%3D%22-30%22%20y%3D%2225.333333333333258%22%20as%3D%22targetPoint%22%2F%3E%3C%2FmxGeometry%3E%3C%2FmxCell%3E%3CmxCell%20id%3D%224%22%20style%3D%22edgeStyle%3DorthogonalEdgeStyle%3Brounded%3D0%3BorthogonalLoop%3D1%3BjettySize%3Dauto%3Bhtml%3D1%3BexitX%3D1%3BexitY%3D0.5%3BexitDx%3D0%3BexitDy%3D0%3BendArrow%3Dnone%3BendFill%3D0%3B%22%20edge%3D%221%22%20parent%3D%222%22%20source%3D%225%22%3E%3CmxGeometry%20relative%3D%221%22%20as%3D%22geometry%22%3E%3CmxPoint%20x%3D%2260%22%20y%3D%2225.333333333333258%22%20as%3D%22targetPoint%22%2F%3E%3C%2FmxGeometry%3E%3C%2FmxCell%3E%3CmxCell%20id%3D%225%22%20value%3D%22%26lt%3Bfont%20style%3D%26quot%3Bfont-size%3A%2010px%3B%26quot%3B%26gt%3BD%26lt%3B%2Ffont%26gt%3B%26lt%3Bfont%20style%3D%26quot%3B%26quot%3B%26gt%3B%26lt%3Bspan%20style%3D%26quot%3Bfont-size%3A%2011px%3B%26quot%3B%26gt%3B%26amp%3Bnbsp%3B%20%26amp%3Bnbsp%3B%20%26amp%3Bnbsp%3B%20%26lt%3B%2Fspan%26gt%3B%26lt%3Bfont%20style%3D%26quot%3Bfont-size%3A%2010px%3B%26quot%3B%26gt%3B%26amp%3Bnbsp%3BQ%26lt%3B%2Ffont%26gt%3B%26lt%3B%2Ffont%26gt%3B%22%20style%3D%22rounded%3D0%3BwhiteSpace%3Dwrap%3Bhtml%3D1%3Bmovable%3D1%3Bresizable%3D1%3Brotatable%3D1%3Bdeletable%3D1%3Beditable%3D1%3Blocked%3D0%3Bconnectable%3D1%3B%22%20vertex%3D%221%22%20parent%3D%222%22%3E%3CmxGeometry%20width%3D%2240%22%20height%3D%2250%22%20as%3D%22geometry%22%2F%3E%3C%2FmxCell%3E%3CmxCell%20id%3D%226%22%20value%3D%22%22%20style%3D%22verticalLabelPosition%3Dbottom%3Bshadow%3D0%3Bdashed%3D0%3Balign%3Dcenter%3Bhtml%3D1%3BverticalAlign%3Dtop%3Bshape%3Dmxgraph.electrical.logic_gates.buffer2%3Bdirection%3Dnorth%3Bmovable%3D1%3Bresizable%3D1%3Brotatable%3D1%3Bdeletable%3D1%3Beditable%3D1%3Blocked%3D0%3Bconnectable%3D1%3B%22%20vertex%3D%221%22%20parent%3D%222%22%3E%3CmxGeometry%20x%3D%2217.5%22%20y%3D%2240%22%20width%3D%225%22%20height%3D%2215%22%20as%3D%22geometry%22%2F%3E%3C%2FmxCell%3E%3CmxCell%20id%3D%227%22%20value%3D%22%22%20style%3D%22group%22%20vertex%3D%221%22%20connectable%3D%220%22%20parent%3D%221%22%3E%3CmxGeometry%20x%3D%22135%22%20y%3D%22690%22%20width%3D%2240%22%20height%3D%2255%22%20as%3D%22geometry%22%2F%3E%3C%2FmxCell%3E%3CmxCell%20id%3D%228%22%20style%3D%22edgeStyle%3DorthogonalEdgeStyle%3Brounded%3D0%3BorthogonalLoop%3D1%3BjettySize%3Dauto%3Bhtml%3D1%3BexitX%3D0%3BexitY%3D0.5%3BexitDx%3D0%3BexitDy%3D0%3BendArrow%3Dnone%3BendFill%3D0%3B%22%20edge%3D%221%22%20parent%3D%227%22%20source%3D%2211%22%3E%3CmxGeometry%20relative%3D%221%22%20as%3D%22geometry%22%3E%3CmxPoint%20x%3D%22-30%22%20y%3D%2225.333333333333258%22%20as%3D%22targetPoint%22%2F%3E%3C%2FmxGeometry%3E%3C%2FmxCell%3E%3CmxCell%20id%3D%229%22%20style%3D%22edgeStyle%3DorthogonalEdgeStyle%3Brounded%3D0%3BorthogonalLoop%3D1%3BjettySize%3Dauto%3Bhtml%3D1%3BexitX%3D1%3BexitY%3D0.5%3BexitDx%3D0%3BexitDy%3D0%3BendArrow%3Dnone%3BendFill%3D0%3B%22%20edge%3D%221%22%20parent%3D%227%22%20source%3D%2211%22%3E%3CmxGeometry%20relative%3D%221%22%20as%3D%22geometry%22%3E%3CmxPoint%20x%3D%2280%22%20y%3D%2225%22%20as%3D%22targetPoint%22%2F%3E%3C%2FmxGeometry%3E%3C%2FmxCell%3E%3CmxCell%20id%3D%2210%22%20value%3D%22%22%20style%3D%22group%22%20vertex%3D%221%22%20connectable%3D%220%22%20parent%3D%227%22%3E%3CmxGeometry%20width%3D%2240%22%20height%3D%2255%22%20as%3D%22geometry%22%2F%3E%3C%2FmxCell%3E%3CmxCell%20id%3D%2211%22%20value%3D%22%26lt%3Bfont%20style%3D%26quot%3Bfont-size%3A%2010px%3B%26quot%3B%26gt%3BD%26lt%3B%2Ffont%26gt%3B%26lt%3Bfont%20style%3D%26quot%3B%26quot%3B%26gt%3B%26lt%3Bspan%20style%3D%26quot%3Bfont-size%3A%2011px%3B%26quot%3B%26gt%3B%26amp%3Bnbsp%3B%20%26amp%3Bnbsp%3B%20%26amp%3Bnbsp%3B%20%26lt%3B%2Fspan%26gt%3B%26lt%3Bfont%20style%3D%26quot%3Bfont-size%3A%2010px%3B%26quot%3B%26gt%3B%26amp%3Bnbsp%3BQ%26lt%3B%2Ffont%26gt%3B%26lt%3B%2Ffont%26gt%3B%22%20style%3D%22rounded%3D0%3BwhiteSpace%3Dwrap%3Bhtml%3D1%3Bmovable%3D1%3Bresizable%3D1%3Brotatable%3D1%3Bdeletable%3D1%3Beditable%3D1%3Blocked%3D0%3Bconnectable%3D1%3B%22%20vertex%3D%221%22%20parent%3D%2210%22%3E%3CmxGeometry%20x%3D%2210%22%20width%3D%2240%22%20height%3D%2250%22%20as%3D%22geometry%22%2F%3E%3C%2FmxCell%3E%3CmxCell%20id%3D%2212%22%20value%3D%22%22%20style%3D%22verticalLabelPosition%3Dbottom%3Bshadow%3D0%3Bdashed%3D0%3Balign%3Dcenter%3Bhtml%3D1%3BverticalAlign%3Dtop%3Bshape%3Dmxgraph.electrical.logic_gates.buffer2%3Bdirection%3Dnorth%3Bmovable%3D1%3Bresizable%3D1%3Brotatable%3D1%3Bdeletable%3D1%3Beditable%3D1%3Blocked%3D0%3Bconnectable%3D1%3B%22%20vertex%3D%221%22%20parent%3D%2210%22%3E%3CmxGeometry%20x%3D%2227.5%22%20y%3D%2240%22%20width%3D%225%22%20height%3D%2215%22%20as%3D%22geometry%22%2F%3E%3C%2FmxCell%3E%3CmxCell%20id%3D%2213%22%20value%3D%22new_clk%22%20style%3D%22text%3Bhtml%3D1%3Balign%3Dcenter%3BverticalAlign%3Dmiddle%3Bresizable%3D0%3Bpoints%3D%5B%5D%3Bautosize%3D1%3BstrokeColor%3Dnone%3BfillColor%3Dnone%3BfontSize%3D8%3B%22%20vertex%3D%221%22%20parent%3D%221%22%3E%3CmxGeometry%20x%3D%2250%22%20y%3D%22745%22%20width%3D%2250%22%20height%3D%2220%22%20as%3D%22geometry%22%2F%3E%3C%2FmxCell%3E%3CmxCell%20id%3D%2214%22%20value%3D%22new_clk%22%20style%3D%22text%3Bhtml%3D1%3Balign%3Dcenter%3BverticalAlign%3Dmiddle%3Bresizable%3D0%3Bpoints%3D%5B%5D%3Bautosize%3D1%3BstrokeColor%3Dnone%3BfillColor%3Dnone%3BfontSize%3D8%3B%22%20vertex%3D%221%22%20parent%3D%221%22%3E%3CmxGeometry%20x%3D%22140%22%20y%3D%22745%22%20width%3D%2250%22%20height%3D%2220%22%20as%3D%22geometry%22%2F%3E%3C%2FmxCell%3E%3CmxCell%20id%3D%2215%22%20value%3D%22reset_prime%22%20style%3D%22text%3Bhtml%3D1%3Balign%3Dcenter%3BverticalAlign%3Dmiddle%3Bresizable%3D0%3Bpoints%3D%5B%5D%3Bautosize%3D1%3BstrokeColor%3Dnone%3BfillColor%3Dnone%3BfontSize%3D8%3B%22%20vertex%3D%221%22%20parent%3D%221%22%3E%3CmxGeometry%20x%3D%2285%22%20y%3D%22698%22%20width%3D%2270%22%20height%3D%2220%22%20as%3D%22geometry%22%2F%3E%3C%2FmxCell%3E%3CmxCell%20id%3D%2216%22%20value%3D%22reset_sync%22%20style%3D%22text%3Bhtml%3D1%3Balign%3Dcenter%3BverticalAlign%3Dmiddle%3Bresizable%3D0%3Bpoints%3D%5B%5D%3Bautosize%3D1%3BstrokeColor%3Dnone%3BfillColor%3Dnone%3BfontSize%3D8%3B%22%20vertex%3D%221%22%20parent%3D%221%22%3E%3CmxGeometry%20x%3D%22180%22%20y%3D%22711%22%20width%3D%2260%22%20height%3D%2220%22%20as%3D%22geometry%22%2F%3E%3C%2FmxCell%3E%3CmxCell%20id%3D%2217%22%20value%3D%22%26lt%3Bfont%20color%3D%26quot%3B%23878787%26quot%3B%26gt%3B%26lt%3Bi%26gt%3BSynchronise%20Clock%26lt%3Bbr%26gt%3B%26lt%3B%2Fi%26gt%3B%26lt%3B%2Ffont%26gt%3B%22%20style%3D%22text%3Bhtml%3D1%3Balign%3Dcenter%3BverticalAlign%3Dmiddle%3Bresizable%3D0%3Bpoints%3D%5B%5D%3Bautosize%3D1%3BstrokeColor%3Dnone%3BfillColor%3Dnone%3B%22%20vertex%3D%221%22%20parent%3D%221%22%3E%3CmxGeometry%20x%3D%2265%22%20y%3D%22765%22%20width%3D%22120%22%20height%3D%2230%22%20as%3D%22geometry%22%2F%3E%3C%2FmxCell%3E%3CmxCell%20id%3D%2218%22%20value%3D%22.%20.%20.%22%20style%3D%22text%3Bhtml%3D1%3Balign%3Dcenter%3BverticalAlign%3Dmiddle%3Bresizable%3D0%3Bpoints%3D%5B%5D%3Bautosize%3D1%3BstrokeColor%3Dnone%3BfillColor%3Dnone%3B%22%20vertex%3D%221%22%20parent%3D%221%22%3E%3CmxGeometry%20x%3D%22210%22%20y%3D%22697%22%20width%3D%2240%22%20height%3D%2230%22%20as%3D%22geometry%22%2F%3E%3C%2FmxCell%3E%3C%2Froot%3E%3C%2FmxGraphModel%3E&lt;/span&gt;" style="text;html=1;align=center;verticalAlign=middle;resizable=0;points=[];autosize=1;strokeColor=none;fillColor=none;fontSize=8;" parent="1" vertex="1">
          <mxGeometry x="365" y="955.98" width="70" height="20" as="geometry" />
        </mxCell>
        <mxCell id="pVU6B8DjynMSReq9NZzx-73" value="button_sync" style="text;html=1;align=center;verticalAlign=middle;resizable=0;points=[];autosize=1;strokeColor=none;fillColor=none;fontSize=8;" parent="1" vertex="1">
          <mxGeometry x="455" y="955.98" width="70" height="20" as="geometry" />
        </mxCell>
        <mxCell id="pVU6B8DjynMSReq9NZzx-74" value="&lt;font color=&quot;#878787&quot;&gt;&lt;i&gt;Synchronise button&lt;br&gt;&lt;/i&gt;&lt;/font&gt;" style="text;html=1;align=center;verticalAlign=middle;resizable=0;points=[];autosize=1;strokeColor=none;fillColor=none;" parent="1" vertex="1">
          <mxGeometry x="320" y="1045.98" width="130" height="30" as="geometry" />
        </mxCell>
        <mxCell id="pVU6B8DjynMSReq9NZzx-76" value="button" style="text;html=1;align=center;verticalAlign=middle;resizable=0;points=[];autosize=1;strokeColor=none;fillColor=none;fontSize=8;" parent="1" vertex="1">
          <mxGeometry x="290" y="955.98" width="50" height="20" as="geometry" />
        </mxCell>
        <mxCell id="pVU6B8DjynMSReq9NZzx-77" value="&lt;font style=&quot;font-size: 10px;&quot;&gt;D&lt;/font&gt;&lt;font style=&quot;&quot;&gt;&lt;span style=&quot;font-size: 11px;&quot;&gt;&amp;nbsp; &amp;nbsp; &amp;nbsp; &lt;/span&gt;&lt;font style=&quot;font-size: 10px;&quot;&gt;&amp;nbsp;Q&lt;/font&gt;&lt;/font&gt;" style="rounded=0;whiteSpace=wrap;html=1;movable=1;resizable=1;rotatable=1;deletable=1;editable=1;locked=0;connectable=1;" parent="1" vertex="1">
          <mxGeometry x="515" y="947.98" width="40" height="50" as="geometry" />
        </mxCell>
        <mxCell id="pVU6B8DjynMSReq9NZzx-115" style="edgeStyle=orthogonalEdgeStyle;rounded=0;orthogonalLoop=1;jettySize=auto;html=1;exitX=0;exitY=0.5;exitDx=0;exitDy=0;endArrow=none;endFill=0;" parent="1" source="pVU6B8DjynMSReq9NZzx-78" edge="1">
          <mxGeometry relative="1" as="geometry">
            <mxPoint x="500" y="1040" as="targetPoint" />
            <Array as="points">
              <mxPoint x="535" y="1030" />
              <mxPoint x="500" y="1030" />
            </Array>
          </mxGeometry>
        </mxCell>
        <mxCell id="pVU6B8DjynMSReq9NZzx-78" value="" style="verticalLabelPosition=bottom;shadow=0;dashed=0;align=center;html=1;verticalAlign=top;shape=mxgraph.electrical.logic_gates.buffer2;direction=north;movable=1;resizable=1;rotatable=1;deletable=1;editable=1;locked=0;connectable=1;" parent="1" vertex="1">
          <mxGeometry x="532.5" y="987.98" width="5" height="15" as="geometry" />
        </mxCell>
        <mxCell id="pVU6B8DjynMSReq9NZzx-66" style="edgeStyle=orthogonalEdgeStyle;rounded=0;orthogonalLoop=1;jettySize=auto;html=1;exitX=1;exitY=0.5;exitDx=0;exitDy=0;endArrow=none;endFill=0;entryX=0;entryY=0.5;entryDx=0;entryDy=0;" parent="1" source="pVU6B8DjynMSReq9NZzx-68" target="pVU6B8DjynMSReq9NZzx-77" edge="1">
          <mxGeometry relative="1" as="geometry">
            <mxPoint x="495" y="972.98" as="targetPoint" />
          </mxGeometry>
        </mxCell>
        <mxCell id="pVU6B8DjynMSReq9NZzx-82" style="edgeStyle=orthogonalEdgeStyle;rounded=0;orthogonalLoop=1;jettySize=auto;html=1;exitX=0;exitY=0.75;exitDx=0;exitDy=0;exitPerimeter=0;entryX=0.572;entryY=0.867;entryDx=0;entryDy=0;entryPerimeter=0;endArrow=none;endFill=0;" parent="1" source="pVU6B8DjynMSReq9NZzx-80" edge="1">
          <mxGeometry relative="1" as="geometry">
            <mxPoint x="491.03999999999996" y="973.3199999999999" as="targetPoint" />
            <mxPoint x="621" y="1023.48" as="sourcePoint" />
            <Array as="points">
              <mxPoint x="491" y="1023.98" />
            </Array>
          </mxGeometry>
        </mxCell>
        <mxCell id="pVU6B8DjynMSReq9NZzx-80" value="" style="verticalLabelPosition=bottom;shadow=0;dashed=0;align=center;html=1;verticalAlign=top;shape=mxgraph.electrical.logic_gates.logic_gate;operation=and;" parent="1" vertex="1">
          <mxGeometry x="575" y="1000.98" width="40" height="30" as="geometry" />
        </mxCell>
        <mxCell id="pVU6B8DjynMSReq9NZzx-81" style="edgeStyle=orthogonalEdgeStyle;rounded=0;orthogonalLoop=1;jettySize=auto;html=1;exitX=1;exitY=0.5;exitDx=0;exitDy=0;entryX=0;entryY=0.25;entryDx=0;entryDy=0;entryPerimeter=0;endArrow=none;endFill=0;" parent="1" source="pVU6B8DjynMSReq9NZzx-77" target="pVU6B8DjynMSReq9NZzx-80" edge="1">
          <mxGeometry relative="1" as="geometry" />
        </mxCell>
        <mxCell id="pVU6B8DjynMSReq9NZzx-85" style="edgeStyle=orthogonalEdgeStyle;rounded=0;orthogonalLoop=1;jettySize=auto;html=1;exitX=1;exitY=0.75;exitDx=0;exitDy=0;endArrow=none;endFill=0;entryX=1;entryY=0.5;entryDx=0;entryDy=0;" parent="1" source="pVU6B8DjynMSReq9NZzx-83" target="pVU6B8DjynMSReq9NZzx-108" edge="1">
          <mxGeometry relative="1" as="geometry">
            <mxPoint x="795" y="1036.027619047619" as="targetPoint" />
            <Array as="points">
              <mxPoint x="780" y="1036" />
              <mxPoint x="780" y="1025" />
            </Array>
          </mxGeometry>
        </mxCell>
        <mxCell id="pVU6B8DjynMSReq9NZzx-83" value="Counter #2" style="rounded=0;whiteSpace=wrap;html=1;" parent="1" vertex="1">
          <mxGeometry x="656" y="975.98" width="80" height="80" as="geometry" />
        </mxCell>
        <mxCell id="pVU6B8DjynMSReq9NZzx-89" style="edgeStyle=orthogonalEdgeStyle;rounded=0;orthogonalLoop=1;jettySize=auto;html=1;exitX=0;exitY=0.75;exitDx=0;exitDy=0;exitPerimeter=0;endArrow=none;endFill=0;" parent="1" edge="1">
          <mxGeometry relative="1" as="geometry">
            <mxPoint x="776" y="1035.98" as="targetPoint" />
            <mxPoint x="616.0000000000002" y="1098.48" as="sourcePoint" />
            <Array as="points">
              <mxPoint x="595" y="1098.98" />
              <mxPoint x="595" y="1115.98" />
              <mxPoint x="755" y="1115.98" />
              <mxPoint x="755" y="1035.98" />
            </Array>
          </mxGeometry>
        </mxCell>
        <mxCell id="pVU6B8DjynMSReq9NZzx-90" style="edgeStyle=orthogonalEdgeStyle;rounded=0;orthogonalLoop=1;jettySize=auto;html=1;exitX=0;exitY=0.25;exitDx=0;exitDy=0;exitPerimeter=0;endArrow=none;endFill=0;entryX=1;entryY=0.5;entryDx=0;entryDy=0;entryPerimeter=0;" parent="1" source="pVU6B8DjynMSReq9NZzx-86" target="pVU6B8DjynMSReq9NZzx-80" edge="1">
          <mxGeometry relative="1" as="geometry">
            <mxPoint x="615" y="1017.98" as="targetPoint" />
            <Array as="points">
              <mxPoint x="615" y="1082.98" />
            </Array>
          </mxGeometry>
        </mxCell>
        <mxCell id="pVU6B8DjynMSReq9NZzx-86" value="" style="verticalLabelPosition=bottom;shadow=0;dashed=0;align=center;html=1;verticalAlign=top;shape=mxgraph.electrical.logic_gates.logic_gate;operation=and;direction=east;" parent="1" vertex="1">
          <mxGeometry x="616" y="1075.98" width="40" height="30" as="geometry" />
        </mxCell>
        <mxCell id="pVU6B8DjynMSReq9NZzx-88" style="edgeStyle=orthogonalEdgeStyle;rounded=0;orthogonalLoop=1;jettySize=auto;html=1;exitX=0;exitY=0.5;exitDx=0;exitDy=0;entryX=1;entryY=0.5;entryDx=0;entryDy=0;entryPerimeter=0;endArrow=none;endFill=0;" parent="1" source="pVU6B8DjynMSReq9NZzx-83" target="pVU6B8DjynMSReq9NZzx-80" edge="1">
          <mxGeometry relative="1" as="geometry" />
        </mxCell>
        <mxCell id="pVU6B8DjynMSReq9NZzx-91" value="clk" style="text;html=1;align=center;verticalAlign=middle;resizable=0;points=[];autosize=1;strokeColor=none;fillColor=none;fontSize=8;" parent="1" vertex="1">
          <mxGeometry x="691.5" y="1055.98" width="30" height="20" as="geometry" />
        </mxCell>
        <mxCell id="pVU6B8DjynMSReq9NZzx-92" value="" style="verticalLabelPosition=bottom;shadow=0;dashed=0;align=center;html=1;verticalAlign=top;shape=mxgraph.electrical.logic_gates.buffer2;direction=north;movable=1;resizable=1;rotatable=1;deletable=1;editable=1;locked=0;connectable=1;" parent="1" vertex="1">
          <mxGeometry x="705" y="1045.98" width="5" height="15" as="geometry" />
        </mxCell>
        <mxCell id="pVU6B8DjynMSReq9NZzx-94" style="edgeStyle=orthogonalEdgeStyle;rounded=0;orthogonalLoop=1;jettySize=auto;html=1;exitX=0.25;exitY=1;exitDx=0;exitDy=0;entryX=1;entryY=0.5;entryDx=0;entryDy=0;entryPerimeter=0;endArrow=none;endFill=0;" parent="1" source="pVU6B8DjynMSReq9NZzx-83" target="pVU6B8DjynMSReq9NZzx-86" edge="1">
          <mxGeometry relative="1" as="geometry" />
        </mxCell>
        <mxCell id="pVU6B8DjynMSReq9NZzx-96" value="EN" style="text;html=1;align=center;verticalAlign=middle;resizable=0;points=[];autosize=1;strokeColor=none;fillColor=none;fontSize=8;" parent="1" vertex="1">
          <mxGeometry x="660" y="1037.98" width="30" height="20" as="geometry" />
        </mxCell>
        <mxCell id="pVU6B8DjynMSReq9NZzx-97" value="button_debouce" style="text;html=1;align=center;verticalAlign=middle;resizable=0;points=[];autosize=1;strokeColor=none;fillColor=none;fontSize=8;" parent="1" vertex="1">
          <mxGeometry x="727" y="1006.98" width="80" height="20" as="geometry" />
        </mxCell>
        <mxCell id="pVU6B8DjynMSReq9NZzx-98" value="" style="endArrow=none;html=1;rounded=0;entryX=1;entryY=0.25;entryDx=0;entryDy=0;endFill=0;" parent="1" edge="1">
          <mxGeometry width="50" height="50" relative="1" as="geometry">
            <mxPoint x="770" y="996" as="sourcePoint" />
            <mxPoint x="736" y="995.98" as="targetPoint" />
          </mxGeometry>
        </mxCell>
        <mxCell id="pVU6B8DjynMSReq9NZzx-100" value="&lt;div&gt;&amp;nbsp; &amp;nbsp;5&lt;/div&gt;/" style="text;html=1;align=center;verticalAlign=middle;resizable=0;points=[];autosize=1;strokeColor=none;fillColor=none;" parent="1" vertex="1">
          <mxGeometry x="730" y="967.98" width="40" height="40" as="geometry" />
        </mxCell>
        <mxCell id="pVU6B8DjynMSReq9NZzx-104" value="&lt;font color=&quot;#878787&quot;&gt;&lt;i&gt;FF[0]&lt;/i&gt;&lt;/font&gt;" style="text;html=1;align=center;verticalAlign=middle;resizable=0;points=[];autosize=1;strokeColor=none;fillColor=none;" parent="1" vertex="1">
          <mxGeometry x="375" y="937.98" width="50" height="30" as="geometry" />
        </mxCell>
        <mxCell id="pVU6B8DjynMSReq9NZzx-105" value="&lt;font color=&quot;#878787&quot;&gt;&lt;i&gt;FF[1]&lt;/i&gt;&lt;/font&gt;" style="text;html=1;align=center;verticalAlign=middle;resizable=0;points=[];autosize=1;strokeColor=none;fillColor=none;" parent="1" vertex="1">
          <mxGeometry x="465" y="937.98" width="50" height="30" as="geometry" />
        </mxCell>
        <mxCell id="pVU6B8DjynMSReq9NZzx-106" value="&lt;font color=&quot;#878787&quot;&gt;&lt;i&gt;FF[2]&lt;/i&gt;&lt;/font&gt;" style="text;html=1;align=center;verticalAlign=middle;resizable=0;points=[];autosize=1;strokeColor=none;fillColor=none;" parent="1" vertex="1">
          <mxGeometry x="551" y="940" width="50" height="30" as="geometry" />
        </mxCell>
        <mxCell id="pVU6B8DjynMSReq9NZzx-107" value="&lt;font color=&quot;#878787&quot;&gt;&lt;i&gt;B_ON&lt;/i&gt;&lt;/font&gt;" style="text;html=1;align=center;verticalAlign=middle;resizable=0;points=[];autosize=1;strokeColor=none;fillColor=none;" parent="1" vertex="1">
          <mxGeometry x="601" y="987.98" width="60" height="30" as="geometry" />
        </mxCell>
        <mxCell id="pVU6B8DjynMSReq9NZzx-119" value="" style="pointerEvents=1;verticalLabelPosition=bottom;shadow=0;dashed=0;align=center;html=1;verticalAlign=top;shape=mxgraph.electrical.signal_sources.signal_ground;direction=north;" parent="1" vertex="1">
          <mxGeometry x="760" y="986.98" width="10" height="17.5" as="geometry" />
        </mxCell>
        <mxCell id="pVU6B8DjynMSReq9NZzx-60" style="edgeStyle=orthogonalEdgeStyle;rounded=0;orthogonalLoop=1;jettySize=auto;html=1;exitX=0;exitY=0.5;exitDx=0;exitDy=0;endArrow=none;endFill=0;entryX=0;entryY=0.5;entryDx=0;entryDy=0;" parent="1" source="pVU6B8DjynMSReq9NZzx-62" target="pVU6B8DjynMSReq9NZzx-108" edge="1">
          <mxGeometry relative="1" as="geometry">
            <mxPoint x="305" y="973.3133333333333" as="targetPoint" />
          </mxGeometry>
        </mxCell>
        <mxCell id="pVU6B8DjynMSReq9NZzx-123" value="&lt;font color=&quot;#ff7661&quot;&gt;Module Counter #2&lt;/font&gt;" style="text;html=1;align=center;verticalAlign=middle;resizable=0;points=[];autosize=1;strokeColor=none;fillColor=none;" parent="1" vertex="1">
          <mxGeometry x="631" y="945.98" width="130" height="30" as="geometry" />
        </mxCell>
        <mxCell id="pVU6B8DjynMSReq9NZzx-132" value="" style="verticalLabelPosition=bottom;shadow=0;dashed=0;align=center;html=1;verticalAlign=top;shape=mxgraph.electrical.logic_gates.buffer2;direction=north;movable=1;resizable=1;rotatable=1;deletable=1;editable=1;locked=0;connectable=1;" parent="1" vertex="1">
          <mxGeometry x="645.9200000000001" y="878" width="15" height="25" as="geometry" />
        </mxCell>
        <mxCell id="pVU6B8DjynMSReq9NZzx-134" style="edgeStyle=orthogonalEdgeStyle;rounded=0;orthogonalLoop=1;jettySize=auto;html=1;exitX=1;exitY=0.5;exitDx=0;exitDy=0;entryX=1;entryY=0.5;entryDx=0;entryDy=0;endArrow=none;endFill=0;" parent="1" source="pVU6B8DjynMSReq9NZzx-135" target="pVU6B8DjynMSReq9NZzx-138" edge="1">
          <mxGeometry relative="1" as="geometry">
            <Array as="points">
              <mxPoint x="715.9200000000001" y="802.5" />
              <mxPoint x="715.9200000000001" y="742.5" />
            </Array>
          </mxGeometry>
        </mxCell>
        <mxCell id="pVU6B8DjynMSReq9NZzx-135" value="&lt;font style=&quot;font-size: 10px;&quot;&gt;D&lt;/font&gt;&lt;font style=&quot;&quot;&gt;&lt;span style=&quot;font-size: 11px;&quot;&gt;&amp;nbsp; &amp;nbsp; &amp;nbsp; &lt;/span&gt;&lt;font style=&quot;font-size: 10px;&quot;&gt;&amp;nbsp;Q&lt;/font&gt;&lt;/font&gt;" style="rounded=0;whiteSpace=wrap;html=1;movable=1;resizable=1;rotatable=1;deletable=1;editable=1;locked=0;connectable=1;" parent="1" vertex="1">
          <mxGeometry x="648.4200000000001" y="777.5" width="40" height="50" as="geometry" />
        </mxCell>
        <mxCell id="pVU6B8DjynMSReq9NZzx-136" value="" style="verticalLabelPosition=bottom;shadow=0;dashed=0;align=center;html=1;verticalAlign=top;shape=mxgraph.electrical.logic_gates.buffer2;direction=north;movable=1;resizable=1;rotatable=1;deletable=1;editable=1;locked=0;connectable=1;" parent="1" vertex="1">
          <mxGeometry x="665.9200000000001" y="817.5" width="5" height="15" as="geometry" />
        </mxCell>
        <mxCell id="pVU6B8DjynMSReq9NZzx-137" style="edgeStyle=orthogonalEdgeStyle;rounded=0;orthogonalLoop=1;jettySize=auto;html=1;exitX=1;exitY=0.75;exitDx=0;exitDy=0;endArrow=none;endFill=0;" parent="1" edge="1">
          <mxGeometry relative="1" as="geometry">
            <mxPoint x="725.9200000000001" y="732.46" as="targetPoint" />
            <mxPoint x="688.4200000000001" y="732.26" as="sourcePoint" />
            <Array as="points">
              <mxPoint x="705.9200000000001" y="732.26" />
              <mxPoint x="705.9200000000001" y="732.26" />
            </Array>
          </mxGeometry>
        </mxCell>
        <mxCell id="pVU6B8DjynMSReq9NZzx-138" value="half&lt;br&gt;adder" style="whiteSpace=wrap;html=1;aspect=fixed;" parent="1" vertex="1">
          <mxGeometry x="648.4200000000001" y="722.5" width="40" height="40" as="geometry" />
        </mxCell>
        <mxCell id="pVU6B8DjynMSReq9NZzx-139" value="&lt;font style=&quot;font-size: 12px;&quot;&gt;r&lt;/font&gt;" style="text;html=1;align=center;verticalAlign=middle;resizable=0;points=[];autosize=1;strokeColor=none;fillColor=none;strokeWidth=7;" parent="1" vertex="1">
          <mxGeometry x="638.0000000000001" y="800.5" width="30" height="30" as="geometry" />
        </mxCell>
        <mxCell id="pVU6B8DjynMSReq9NZzx-142" value="4&#39;b0001" style="text;html=1;align=center;verticalAlign=middle;resizable=0;points=[];autosize=1;strokeColor=none;fillColor=none;fontSize=7;" parent="1" vertex="1">
          <mxGeometry x="690.9200000000001" y="712.5" width="50" height="20" as="geometry" />
        </mxCell>
        <mxCell id="pVU6B8DjynMSReq9NZzx-146" value="clk" style="text;html=1;align=center;verticalAlign=middle;resizable=0;points=[];autosize=1;strokeColor=none;fillColor=none;fontSize=8;" parent="1" vertex="1">
          <mxGeometry x="660.9200000000001" y="877.5" width="30" height="20" as="geometry" />
        </mxCell>
        <mxCell id="pVU6B8DjynMSReq9NZzx-168" style="edgeStyle=orthogonalEdgeStyle;rounded=0;orthogonalLoop=1;jettySize=auto;html=1;exitX=1;exitY=0.5;exitDx=0;exitDy=-5;exitPerimeter=0;entryX=0;entryY=0.5;entryDx=0;entryDy=0;endArrow=none;endFill=0;" parent="1" source="pVU6B8DjynMSReq9NZzx-147" target="pVU6B8DjynMSReq9NZzx-135" edge="1">
          <mxGeometry relative="1" as="geometry" />
        </mxCell>
        <mxCell id="pVU6B8DjynMSReq9NZzx-171" style="edgeStyle=orthogonalEdgeStyle;rounded=0;orthogonalLoop=1;jettySize=auto;html=1;exitX=0;exitY=0.16111111111111112;exitDx=0;exitDy=3;exitPerimeter=0;endArrow=none;endFill=0;" parent="1" source="pVU6B8DjynMSReq9NZzx-147" edge="1">
          <mxGeometry relative="1" as="geometry">
            <mxPoint x="715.9200000000001" y="772.5" as="targetPoint" />
            <Array as="points">
              <mxPoint x="595.9200000000001" y="772.5" />
            </Array>
          </mxGeometry>
        </mxCell>
        <mxCell id="pVU6B8DjynMSReq9NZzx-147" value="&lt;font style=&quot;font-size: 6px;&quot;&gt;Mux&lt;/font&gt;&lt;div&gt;&lt;font style=&quot;font-size: 6px;&quot;&gt;&lt;br&gt;&lt;/font&gt;&lt;/div&gt;" style="shadow=0;dashed=0;align=center;html=1;strokeWidth=1;shape=mxgraph.electrical.abstract.mux2;whiteSpace=wrap;" parent="1" vertex="1">
          <mxGeometry x="595.9200000000001" y="785" width="35" height="45" as="geometry" />
        </mxCell>
        <mxCell id="pVU6B8DjynMSReq9NZzx-149" value="" style="group" parent="1" vertex="1" connectable="0">
          <mxGeometry x="435.91999999999996" y="762.5" width="40" height="55" as="geometry" />
        </mxCell>
        <mxCell id="pVU6B8DjynMSReq9NZzx-150" value="&lt;font style=&quot;font-size: 10px;&quot;&gt;D&lt;/font&gt;&lt;font style=&quot;&quot;&gt;&lt;span style=&quot;font-size: 11px;&quot;&gt;&amp;nbsp; &amp;nbsp; &amp;nbsp; &lt;/span&gt;&lt;font style=&quot;font-size: 10px;&quot;&gt;&amp;nbsp;Q&lt;/font&gt;&lt;/font&gt;" style="rounded=0;whiteSpace=wrap;html=1;movable=1;resizable=1;rotatable=1;deletable=1;editable=1;locked=0;connectable=1;" parent="pVU6B8DjynMSReq9NZzx-149" vertex="1">
          <mxGeometry width="40" height="50" as="geometry" />
        </mxCell>
        <mxCell id="pVU6B8DjynMSReq9NZzx-151" value="" style="verticalLabelPosition=bottom;shadow=0;dashed=0;align=center;html=1;verticalAlign=top;shape=mxgraph.electrical.logic_gates.buffer2;direction=north;movable=1;resizable=1;rotatable=1;deletable=1;editable=1;locked=0;connectable=1;" parent="pVU6B8DjynMSReq9NZzx-149" vertex="1">
          <mxGeometry x="17.5" y="40" width="5" height="15" as="geometry" />
        </mxCell>
        <mxCell id="pVU6B8DjynMSReq9NZzx-152" value="" style="group" parent="1" vertex="1" connectable="0">
          <mxGeometry x="505.91999999999996" y="762.5" width="40" height="55" as="geometry" />
        </mxCell>
        <mxCell id="pVU6B8DjynMSReq9NZzx-164" style="edgeStyle=orthogonalEdgeStyle;rounded=0;orthogonalLoop=1;jettySize=auto;html=1;exitX=0;exitY=0.5;exitDx=0;exitDy=0;endArrow=none;endFill=0;" parent="pVU6B8DjynMSReq9NZzx-152" source="pVU6B8DjynMSReq9NZzx-153" edge="1">
          <mxGeometry relative="1" as="geometry">
            <mxPoint x="-17.91999999999996" y="25" as="targetPoint" />
          </mxGeometry>
        </mxCell>
        <mxCell id="pVU6B8DjynMSReq9NZzx-153" value="&lt;font style=&quot;font-size: 10px;&quot;&gt;D&lt;/font&gt;&lt;font style=&quot;&quot;&gt;&lt;span style=&quot;font-size: 11px;&quot;&gt;&amp;nbsp; &amp;nbsp; &amp;nbsp; &lt;/span&gt;&lt;font style=&quot;font-size: 10px;&quot;&gt;&amp;nbsp;Q&lt;/font&gt;&lt;/font&gt;" style="rounded=0;whiteSpace=wrap;html=1;movable=1;resizable=1;rotatable=1;deletable=1;editable=1;locked=0;connectable=1;" parent="pVU6B8DjynMSReq9NZzx-152" vertex="1">
          <mxGeometry width="40" height="50" as="geometry" />
        </mxCell>
        <mxCell id="pVU6B8DjynMSReq9NZzx-154" value="" style="verticalLabelPosition=bottom;shadow=0;dashed=0;align=center;html=1;verticalAlign=top;shape=mxgraph.electrical.logic_gates.buffer2;direction=north;movable=1;resizable=1;rotatable=1;deletable=1;editable=1;locked=0;connectable=1;" parent="pVU6B8DjynMSReq9NZzx-152" vertex="1">
          <mxGeometry x="17.5" y="40" width="5" height="15" as="geometry" />
        </mxCell>
        <mxCell id="pVU6B8DjynMSReq9NZzx-157" value="" style="verticalLabelPosition=bottom;shadow=0;dashed=0;align=center;html=1;verticalAlign=top;shape=mxgraph.electrical.logic_gates.inverter_2;direction=east;" parent="1" vertex="1">
          <mxGeometry x="491.4200000000001" y="827.5" width="25.5" height="15.5" as="geometry" />
        </mxCell>
        <mxCell id="pVU6B8DjynMSReq9NZzx-160" value="" style="verticalLabelPosition=bottom;shadow=0;dashed=0;align=center;html=1;verticalAlign=top;shape=mxgraph.electrical.logic_gates.logic_gate;operation=and;direction=south;" parent="1" vertex="1">
          <mxGeometry x="545.9200000000001" y="837.5" width="30" height="40" as="geometry" />
        </mxCell>
        <mxCell id="pVU6B8DjynMSReq9NZzx-167" style="edgeStyle=orthogonalEdgeStyle;rounded=0;orthogonalLoop=1;jettySize=auto;html=1;exitX=0.21428571428571427;exitY=1;exitDx=10;exitDy=0;exitPerimeter=0;entryX=1;entryY=0.5;entryDx=0;entryDy=0;entryPerimeter=0;endArrow=none;endFill=0;" parent="1" source="pVU6B8DjynMSReq9NZzx-147" target="pVU6B8DjynMSReq9NZzx-160" edge="1">
          <mxGeometry relative="1" as="geometry">
            <Array as="points">
              <mxPoint x="613.9200000000001" y="882.5" />
              <mxPoint x="560.9200000000001" y="882.5" />
            </Array>
          </mxGeometry>
        </mxCell>
        <mxCell id="pVU6B8DjynMSReq9NZzx-170" style="edgeStyle=orthogonalEdgeStyle;rounded=0;orthogonalLoop=1;jettySize=auto;html=1;exitX=0;exitY=0.5;exitDx=0;exitDy=0;entryX=0;entryY=0.4833333333333334;entryDx=0;entryDy=3;entryPerimeter=0;endArrow=none;endFill=0;" parent="1" source="pVU6B8DjynMSReq9NZzx-138" target="pVU6B8DjynMSReq9NZzx-147" edge="1">
          <mxGeometry relative="1" as="geometry">
            <Array as="points">
              <mxPoint x="585.9200000000001" y="742.5" />
              <mxPoint x="585.9200000000001" y="809.5" />
            </Array>
          </mxGeometry>
        </mxCell>
        <mxCell id="pVU6B8DjynMSReq9NZzx-174" value="&lt;font color=&quot;#878787&quot;&gt;&lt;i&gt;&quot;Negedge Button&quot;&lt;/i&gt;&lt;/font&gt;" style="text;html=1;align=center;verticalAlign=middle;resizable=0;points=[];autosize=1;strokeColor=none;fillColor=none;" parent="1" vertex="1">
          <mxGeometry x="432.99999999999994" y="727.5" width="120" height="30" as="geometry" />
        </mxCell>
        <mxCell id="pVU6B8DjynMSReq9NZzx-175" value="&lt;font color=&quot;#878787&quot;&gt;&lt;i&gt;Increment on&lt;/i&gt;&lt;/font&gt;&lt;div&gt;&lt;font color=&quot;#878787&quot;&gt;&lt;i&gt;&quot;Negedge Button&quot;&lt;/i&gt;&lt;/font&gt;&lt;/div&gt;" style="text;html=1;align=center;verticalAlign=middle;resizable=0;points=[];autosize=1;strokeColor=none;fillColor=none;" parent="1" vertex="1">
          <mxGeometry x="595.9200000000001" y="680.5" width="120" height="40" as="geometry" />
        </mxCell>
        <mxCell id="pVU6B8DjynMSReq9NZzx-176" value="reset_sync" style="text;html=1;align=center;verticalAlign=middle;resizable=0;points=[];autosize=1;strokeColor=none;fillColor=none;fontSize=7;" parent="1" vertex="1">
          <mxGeometry x="490.91999999999996" y="877.5" width="60" height="20" as="geometry" />
        </mxCell>
        <mxCell id="pVU6B8DjynMSReq9NZzx-177" value="&lt;div&gt;&amp;nbsp; &amp;nbsp;4&lt;/div&gt;&lt;div&gt;&lt;span style=&quot;background-color: initial;&quot;&gt;/&lt;/span&gt;&lt;br&gt;&lt;/div&gt;" style="text;html=1;align=center;verticalAlign=middle;resizable=0;points=[];autosize=1;strokeColor=none;fillColor=none;" parent="1" vertex="1">
          <mxGeometry x="681.9200000000001" y="775" width="40" height="40" as="geometry" />
        </mxCell>
        <mxCell id="pVU6B8DjynMSReq9NZzx-183" value="clk" style="text;html=1;align=center;verticalAlign=middle;resizable=0;points=[];autosize=1;strokeColor=none;fillColor=none;fontSize=8;" parent="1" vertex="1">
          <mxGeometry x="440.91999999999996" y="812.5" width="30" height="20" as="geometry" />
        </mxCell>
        <mxCell id="pVU6B8DjynMSReq9NZzx-184" value="clk" style="text;html=1;align=center;verticalAlign=middle;resizable=0;points=[];autosize=1;strokeColor=none;fillColor=none;fontSize=8;" parent="1" vertex="1">
          <mxGeometry x="516.92" y="808.5" width="30" height="20" as="geometry" />
        </mxCell>
        <mxCell id="pVU6B8DjynMSReq9NZzx-185" value="button_presses" style="text;html=1;align=center;verticalAlign=middle;resizable=0;points=[];autosize=1;strokeColor=none;fillColor=none;fontSize=7;" parent="1" vertex="1">
          <mxGeometry x="718.0000000000001" y="775" width="70" height="20" as="geometry" />
        </mxCell>
        <mxCell id="pVU6B8DjynMSReq9NZzx-190" style="edgeStyle=orthogonalEdgeStyle;rounded=0;orthogonalLoop=1;jettySize=auto;html=1;exitX=1;exitY=0.5;exitDx=0;exitDy=0;entryX=0;entryY=0.5;entryDx=0;entryDy=0;" parent="1" source="pVU6B8DjynMSReq9NZzx-124" target="pVU6B8DjynMSReq9NZzx-187" edge="1">
          <mxGeometry relative="1" as="geometry" />
        </mxCell>
        <mxCell id="pVU6B8DjynMSReq9NZzx-191" style="edgeStyle=orthogonalEdgeStyle;rounded=0;orthogonalLoop=1;jettySize=auto;html=1;exitX=1;exitY=0.5;exitDx=0;exitDy=0;entryX=0.5;entryY=0;entryDx=0;entryDy=0;endArrow=none;endFill=0;" parent="1" source="pVU6B8DjynMSReq9NZzx-187" target="wYi5QQP4cXFv1H6Gll4Q-29" edge="1">
          <mxGeometry relative="1" as="geometry" />
        </mxCell>
        <mxCell id="pVU6B8DjynMSReq9NZzx-194" value=". . ." style="text;html=1;align=center;verticalAlign=middle;resizable=0;points=[];autosize=1;strokeColor=none;fillColor=none;rotation=90;" parent="1" vertex="1">
          <mxGeometry x="159" y="166.5" width="40" height="30" as="geometry" />
        </mxCell>
        <mxCell id="pVU6B8DjynMSReq9NZzx-195" style="edgeStyle=orthogonalEdgeStyle;rounded=0;orthogonalLoop=1;jettySize=auto;html=1;exitX=0.25;exitY=1;exitDx=0;exitDy=0;endArrow=none;endFill=0;" parent="1" source="pVU6B8DjynMSReq9NZzx-187" edge="1">
          <mxGeometry relative="1" as="geometry">
            <mxPoint x="175" y="170" as="targetPoint" />
            <Array as="points">
              <mxPoint x="195" y="150" />
              <mxPoint x="175" y="150" />
            </Array>
          </mxGeometry>
        </mxCell>
        <mxCell id="pVU6B8DjynMSReq9NZzx-198" value="button_presses" style="text;html=1;align=center;verticalAlign=middle;resizable=0;points=[];autosize=1;strokeColor=none;fillColor=none;fontSize=8;rotation=90;" parent="1" vertex="1">
          <mxGeometry x="275" y="140" width="80" height="20" as="geometry" />
        </mxCell>
        <mxCell id="pVU6B8DjynMSReq9NZzx-199" value="&lt;font color=&quot;#878787&quot;&gt;&lt;i&gt;Every press it&amp;nbsp;&lt;br&gt;increments the num&amp;nbsp;&lt;/i&gt;&lt;/font&gt;&lt;div&gt;&lt;font color=&quot;#878787&quot;&gt;&lt;i&gt;of presses&lt;/i&gt;&lt;/font&gt;&lt;/div&gt;" style="text;html=1;align=center;verticalAlign=middle;resizable=0;points=[];autosize=1;strokeColor=none;fillColor=none;" parent="1" vertex="1">
          <mxGeometry x="270" y="50" width="130" height="60" as="geometry" />
        </mxCell>
        <mxCell id="ASkRhYIus_giJ6UHMFHR-1" style="edgeStyle=orthogonalEdgeStyle;rounded=0;orthogonalLoop=1;jettySize=auto;html=1;exitX=0.944;exitY=1.009;exitDx=0;exitDy=0;endArrow=none;endFill=0;exitPerimeter=0;" parent="1" source="pVU6B8DjynMSReq9NZzx-83" edge="1">
          <mxGeometry relative="1" as="geometry">
            <mxPoint x="619.8700000000001" y="1140" as="targetPoint" />
            <Array as="points">
              <mxPoint x="732" y="1060" />
              <mxPoint x="720" y="1060" />
              <mxPoint x="720" y="1130" />
              <mxPoint x="620" y="1130" />
            </Array>
            <mxPoint x="731.95" y="1053" as="sourcePoint" />
          </mxGeometry>
        </mxCell>
        <mxCell id="ASkRhYIus_giJ6UHMFHR-2" value="reset_sync" style="text;html=1;align=center;verticalAlign=middle;resizable=0;points=[];autosize=1;strokeColor=none;fillColor=none;fontSize=7;" parent="1" vertex="1">
          <mxGeometry x="574.8699999999999" y="1115" width="60" height="20" as="geometry" />
        </mxCell>
        <mxCell id="bRx5JenkDJqhgpU29fZK-11" style="edgeStyle=orthogonalEdgeStyle;rounded=0;orthogonalLoop=1;jettySize=auto;html=1;exitX=1;exitY=0.5;exitDx=0;exitDy=0;entryX=0;entryY=0.5;entryDx=0;entryDy=0;entryPerimeter=0;endArrow=none;endFill=0;" parent="1" source="pVU6B8DjynMSReq9NZzx-150" target="pVU6B8DjynMSReq9NZzx-157" edge="1">
          <mxGeometry relative="1" as="geometry">
            <Array as="points">
              <mxPoint x="488" y="787.5" />
              <mxPoint x="488" y="835.5" />
            </Array>
          </mxGeometry>
        </mxCell>
        <mxCell id="bRx5JenkDJqhgpU29fZK-12" style="edgeStyle=orthogonalEdgeStyle;rounded=0;orthogonalLoop=1;jettySize=auto;html=1;exitX=1;exitY=0.5;exitDx=0;exitDy=0;exitPerimeter=0;entryX=0;entryY=0.75;entryDx=0;entryDy=0;entryPerimeter=0;endArrow=none;endFill=0;" parent="1" source="pVU6B8DjynMSReq9NZzx-157" target="pVU6B8DjynMSReq9NZzx-160" edge="1">
          <mxGeometry relative="1" as="geometry" />
        </mxCell>
        <mxCell id="bRx5JenkDJqhgpU29fZK-13" style="edgeStyle=orthogonalEdgeStyle;rounded=0;orthogonalLoop=1;jettySize=auto;html=1;exitX=1;exitY=0.5;exitDx=0;exitDy=0;entryX=0;entryY=0.25;entryDx=0;entryDy=0;entryPerimeter=0;endArrow=none;endFill=0;" parent="1" source="pVU6B8DjynMSReq9NZzx-153" target="pVU6B8DjynMSReq9NZzx-160" edge="1">
          <mxGeometry relative="1" as="geometry" />
        </mxCell>
        <mxCell id="bRx5JenkDJqhgpU29fZK-21" style="edgeStyle=orthogonalEdgeStyle;rounded=0;orthogonalLoop=1;jettySize=auto;html=1;exitX=0;exitY=0.75;exitDx=0;exitDy=0;exitPerimeter=0;entryX=0;entryY=0.5;entryDx=0;entryDy=0;endArrow=none;endFill=0;" parent="1" source="bRx5JenkDJqhgpU29fZK-14" target="bRx5JenkDJqhgpU29fZK-20" edge="1">
          <mxGeometry relative="1" as="geometry">
            <Array as="points">
              <mxPoint x="648" y="865.5" />
              <mxPoint x="679" y="864.5" />
              <mxPoint x="679" y="850.5" />
            </Array>
          </mxGeometry>
        </mxCell>
        <mxCell id="bRx5JenkDJqhgpU29fZK-25" style="edgeStyle=orthogonalEdgeStyle;rounded=0;orthogonalLoop=1;jettySize=auto;html=1;exitX=1;exitY=0.5;exitDx=0;exitDy=0;exitPerimeter=0;entryX=0;entryY=0.75;entryDx=0;entryDy=0;endArrow=none;endFill=0;" parent="1" source="bRx5JenkDJqhgpU29fZK-14" target="pVU6B8DjynMSReq9NZzx-135" edge="1">
          <mxGeometry relative="1" as="geometry">
            <Array as="points">
              <mxPoint x="636" y="815.5" />
            </Array>
          </mxGeometry>
        </mxCell>
        <mxCell id="bRx5JenkDJqhgpU29fZK-14" value="" style="verticalLabelPosition=bottom;shadow=0;dashed=0;align=center;html=1;verticalAlign=top;shape=mxgraph.electrical.logic_gates.logic_gate;operation=or;direction=north;" parent="1" vertex="1">
          <mxGeometry x="624" y="830" width="25" height="35" as="geometry" />
        </mxCell>
        <mxCell id="bRx5JenkDJqhgpU29fZK-15" style="edgeStyle=orthogonalEdgeStyle;rounded=0;orthogonalLoop=1;jettySize=auto;html=1;exitX=0;exitY=0.25;exitDx=0;exitDy=0;exitPerimeter=0;entryX=0.355;entryY=1.006;entryDx=0;entryDy=0;entryPerimeter=0;endArrow=none;endFill=0;" parent="1" edge="1">
          <mxGeometry relative="1" as="geometry">
            <mxPoint x="630.25" y="863" as="sourcePoint" />
            <mxPoint x="530.325" y="902.44" as="targetPoint" />
            <Array as="points">
              <mxPoint x="630" y="892.5" />
              <mxPoint x="530" y="892.5" />
            </Array>
          </mxGeometry>
        </mxCell>
        <mxCell id="bRx5JenkDJqhgpU29fZK-31" style="edgeStyle=orthogonalEdgeStyle;rounded=0;orthogonalLoop=1;jettySize=auto;html=1;exitX=1;exitY=0.25;exitDx=0;exitDy=0;endArrow=none;endFill=0;" parent="1" edge="1">
          <mxGeometry relative="1" as="geometry">
            <mxPoint x="748" y="802.5000000000001" as="targetPoint" />
            <mxPoint x="738" y="838.5" as="sourcePoint" />
          </mxGeometry>
        </mxCell>
        <mxCell id="bRx5JenkDJqhgpU29fZK-20" value="wrap&lt;br&gt;logic" style="whiteSpace=wrap;html=1;aspect=fixed;" parent="1" vertex="1">
          <mxGeometry x="698.0000000000001" y="830.5" width="40" height="40" as="geometry" />
        </mxCell>
        <mxCell id="bRx5JenkDJqhgpU29fZK-29" value="" style="endArrow=none;html=1;rounded=0;endFill=0;" parent="1" edge="1">
          <mxGeometry width="50" height="50" relative="1" as="geometry">
            <mxPoint x="613" y="874.5" as="sourcePoint" />
            <mxPoint x="738" y="844.5" as="targetPoint" />
            <Array as="points">
              <mxPoint x="748" y="874.5" />
              <mxPoint x="748" y="860.5" />
              <mxPoint x="748" y="844.5" />
            </Array>
          </mxGeometry>
        </mxCell>
        <mxCell id="bRx5JenkDJqhgpU29fZK-33" value="&lt;font color=&quot;#ff7661&quot;&gt;&amp;nbsp; &amp;nbsp;&lt;/font&gt;&lt;div&gt;&lt;font color=&quot;#ff7661&quot;&gt;&amp;nbsp; &amp;nbsp; Char Decoder&amp;nbsp; &amp;nbsp; &amp;nbsp; &amp;nbsp; &amp;nbsp; &amp;nbsp; &amp;nbsp; &amp;nbsp; &amp;nbsp; &amp;nbsp; &amp;nbsp; &amp;nbsp; &amp;nbsp; &amp;nbsp; &amp;nbsp; &amp;nbsp; &amp;nbsp; &amp;nbsp; &amp;nbsp; &amp;nbsp; &amp;nbsp; &amp;nbsp; &amp;nbsp; &amp;nbsp; &amp;nbsp; &amp;nbsp; &amp;nbsp; &amp;nbsp; &amp;nbsp; &amp;nbsp; &amp;nbsp; &amp;nbsp; &amp;nbsp; &amp;nbsp; &amp;nbsp; &amp;nbsp; &amp;nbsp; &amp;nbsp; &amp;nbsp; &amp;nbsp; &amp;nbsp; &amp;nbsp; &amp;nbsp; &amp;nbsp; &amp;nbsp; &amp;nbsp; &amp;nbsp; &amp;nbsp; &amp;nbsp; &amp;nbsp; &amp;nbsp;&lt;/font&gt;&lt;div&gt;&lt;font color=&quot;#ff7661&quot;&gt;&lt;br&gt;&lt;/font&gt;&lt;div&gt;&lt;font color=&quot;#ff7661&quot;&gt;&lt;br&gt;&lt;/font&gt;&lt;/div&gt;&lt;div&gt;&lt;font color=&quot;#ff7661&quot;&gt;&lt;br&gt;&lt;/font&gt;&lt;/div&gt;&lt;div&gt;&lt;font color=&quot;#ff7661&quot;&gt;&lt;br&gt;&lt;/font&gt;&lt;/div&gt;&lt;div&gt;&lt;font color=&quot;#ff7661&quot;&gt;&lt;br&gt;&lt;/font&gt;&lt;/div&gt;&lt;div&gt;&lt;font color=&quot;#ff7661&quot;&gt;&lt;br&gt;&lt;/font&gt;&lt;/div&gt;&lt;div&gt;&lt;font color=&quot;#ff7661&quot;&gt;&lt;br&gt;&lt;/font&gt;&lt;/div&gt;&lt;div&gt;&lt;font color=&quot;#ff7661&quot;&gt;&lt;br&gt;&lt;/font&gt;&lt;/div&gt;&lt;div&gt;&lt;font color=&quot;#ff7661&quot;&gt;&lt;br&gt;&lt;/font&gt;&lt;/div&gt;&lt;div&gt;&lt;font color=&quot;#ff7661&quot;&gt;&lt;br&gt;&lt;/font&gt;&lt;/div&gt;&lt;div&gt;&lt;font color=&quot;#ff7661&quot;&gt;&lt;br&gt;&lt;/font&gt;&lt;/div&gt;&lt;div&gt;&lt;font color=&quot;#ff7661&quot;&gt;&lt;br&gt;&lt;/font&gt;&lt;/div&gt;&lt;div&gt;&lt;font color=&quot;#ff7661&quot;&gt;&lt;br&gt;&lt;/font&gt;&lt;/div&gt;&lt;div&gt;&lt;font color=&quot;#ff7661&quot;&gt;&lt;br&gt;&lt;/font&gt;&lt;/div&gt;&lt;/div&gt;&lt;/div&gt;" style="rounded=0;whiteSpace=wrap;html=1;" parent="1" vertex="1">
          <mxGeometry x="35" y="663" width="340" height="237" as="geometry" />
        </mxCell>
        <mxCell id="bRx5JenkDJqhgpU29fZK-54" style="edgeStyle=orthogonalEdgeStyle;rounded=0;orthogonalLoop=1;jettySize=auto;html=1;exitX=1;exitY=0.5;exitDx=0;exitDy=0;entryX=1;entryY=0.5;entryDx=0;entryDy=0;endArrow=none;endFill=0;" parent="1" source="bRx5JenkDJqhgpU29fZK-34" target="bRx5JenkDJqhgpU29fZK-33" edge="1">
          <mxGeometry relative="1" as="geometry">
            <Array as="points">
              <mxPoint x="297" y="782" />
              <mxPoint x="325" y="782" />
            </Array>
          </mxGeometry>
        </mxCell>
        <mxCell id="bRx5JenkDJqhgpU29fZK-34" value="&lt;div&gt;&lt;br&gt;&lt;/div&gt;&lt;div&gt;&lt;br&gt;&lt;/div&gt;&lt;div&gt;&lt;br&gt;&lt;/div&gt;&lt;div&gt;&lt;br&gt;&lt;/div&gt;&lt;div&gt;&lt;br&gt;&lt;/div&gt;&lt;div&gt;&lt;br&gt;&lt;/div&gt;&lt;div&gt;&lt;br&gt;&lt;/div&gt;&lt;div&gt;&lt;br&gt;&lt;/div&gt;" style="rounded=0;whiteSpace=wrap;html=1;" parent="1" vertex="1">
          <mxGeometry x="197" y="721.5" width="80" height="120" as="geometry" />
        </mxCell>
        <mxCell id="bRx5JenkDJqhgpU29fZK-35" value="Mem" style="text;html=1;align=center;verticalAlign=middle;resizable=0;points=[];autosize=1;strokeColor=none;fillColor=none;" parent="1" vertex="1">
          <mxGeometry x="196" y="724" width="50" height="30" as="geometry" />
        </mxCell>
        <mxCell id="bRx5JenkDJqhgpU29fZK-45" style="edgeStyle=orthogonalEdgeStyle;rounded=0;orthogonalLoop=1;jettySize=auto;html=1;exitX=0;exitY=0.25;exitDx=0;exitDy=0;entryX=0;entryY=0.25;entryDx=0;entryDy=0;endArrow=none;endFill=0;" parent="1" source="bRx5JenkDJqhgpU29fZK-44" target="bRx5JenkDJqhgpU29fZK-33" edge="1">
          <mxGeometry relative="1" as="geometry">
            <mxPoint x="15" y="679" as="targetPoint" />
            <Array as="points">
              <mxPoint x="55" y="722" />
              <mxPoint x="45" y="721" />
            </Array>
          </mxGeometry>
        </mxCell>
        <mxCell id="bRx5JenkDJqhgpU29fZK-47" style="edgeStyle=orthogonalEdgeStyle;rounded=0;orthogonalLoop=1;jettySize=auto;html=1;exitX=0;exitY=0.75;exitDx=0;exitDy=0;entryX=0;entryY=0.75;entryDx=0;entryDy=0;endArrow=none;endFill=0;" parent="1" source="bRx5JenkDJqhgpU29fZK-44" target="bRx5JenkDJqhgpU29fZK-33" edge="1">
          <mxGeometry relative="1" as="geometry">
            <mxPoint x="5" y="789" as="targetPoint" />
            <Array as="points">
              <mxPoint x="55" y="762" />
              <mxPoint x="55" y="801" />
              <mxPoint x="35" y="801" />
            </Array>
          </mxGeometry>
        </mxCell>
        <mxCell id="D7BMrgH4MtJiPT_WsUZ1-1" style="edgeStyle=orthogonalEdgeStyle;rounded=0;orthogonalLoop=1;jettySize=auto;html=1;exitX=1;exitY=0.5;exitDx=0;exitDy=0;entryX=0.5;entryY=0;entryDx=0;entryDy=0;endArrow=none;endFill=0;" parent="1" source="bRx5JenkDJqhgpU29fZK-44" target="bRx5JenkDJqhgpU29fZK-34" edge="1">
          <mxGeometry relative="1" as="geometry" />
        </mxCell>
        <mxCell id="bRx5JenkDJqhgpU29fZK-44" value="Dec" style="whiteSpace=wrap;html=1;aspect=fixed;" parent="1" vertex="1">
          <mxGeometry x="75" y="701.5" width="80" height="80" as="geometry" />
        </mxCell>
        <mxCell id="bRx5JenkDJqhgpU29fZK-67" style="edgeStyle=orthogonalEdgeStyle;rounded=0;orthogonalLoop=1;jettySize=auto;html=1;exitX=0.5;exitY=0;exitDx=0;exitDy=0;entryX=0;entryY=0.5;entryDx=0;entryDy=0;endArrow=none;endFill=0;" parent="1" source="bRx5JenkDJqhgpU29fZK-57" target="bRx5JenkDJqhgpU29fZK-34" edge="1">
          <mxGeometry relative="1" as="geometry" />
        </mxCell>
        <mxCell id="bRx5JenkDJqhgpU29fZK-57" value="" style="rounded=0;whiteSpace=wrap;html=1;direction=south;" parent="1" vertex="1">
          <mxGeometry x="95" y="802" width="40.5" height="70" as="geometry" />
        </mxCell>
        <mxCell id="bRx5JenkDJqhgpU29fZK-59" value="Initiate&lt;br&gt;Logic" style="text;html=1;align=center;verticalAlign=middle;resizable=0;points=[];autosize=1;strokeColor=none;fillColor=none;" parent="1" vertex="1">
          <mxGeometry x="85" y="817" width="60" height="40" as="geometry" />
        </mxCell>
        <mxCell id="bRx5JenkDJqhgpU29fZK-68" value="&lt;div&gt;&amp;nbsp; &amp;nbsp;19&lt;/div&gt;/" style="text;html=1;align=center;verticalAlign=middle;resizable=0;points=[];autosize=1;strokeColor=none;fillColor=none;" parent="1" vertex="1">
          <mxGeometry x="126" y="809" width="50" height="40" as="geometry" />
        </mxCell>
        <mxCell id="bRx5JenkDJqhgpU29fZK-69" style="edgeStyle=orthogonalEdgeStyle;rounded=0;orthogonalLoop=1;jettySize=auto;html=1;exitX=0.5;exitY=1;exitDx=0;exitDy=0;entryX=1;entryY=0.5;entryDx=0;entryDy=0;endArrow=none;endFill=0;" parent="1" source="bRx5JenkDJqhgpU29fZK-33" target="bRx5JenkDJqhgpU29fZK-57" edge="1">
          <mxGeometry relative="1" as="geometry">
            <Array as="points">
              <mxPoint x="205" y="889" />
              <mxPoint x="115" y="889" />
            </Array>
          </mxGeometry>
        </mxCell>
        <mxCell id="bRx5JenkDJqhgpU29fZK-70" value="reset_sync" style="text;html=1;align=center;verticalAlign=middle;resizable=0;points=[];autosize=1;strokeColor=none;fillColor=none;fontSize=7;" parent="1" vertex="1">
          <mxGeometry x="137" y="872" width="60" height="20" as="geometry" />
        </mxCell>
        <mxCell id="bRx5JenkDJqhgpU29fZK-71" value="&lt;font color=&quot;#878787&quot;&gt;&lt;i&gt;Set Mem&lt;/i&gt;&lt;/font&gt;" style="text;html=1;align=center;verticalAlign=middle;resizable=0;points=[];autosize=1;strokeColor=none;fillColor=none;" parent="1" vertex="1">
          <mxGeometry x="35.000000000000114" y="872" width="70" height="30" as="geometry" />
        </mxCell>
        <mxCell id="bRx5JenkDJqhgpU29fZK-72" value="&lt;font color=&quot;#878787&quot;&gt;&lt;i&gt;Output Char&lt;/i&gt;&lt;/font&gt;" style="text;html=1;align=center;verticalAlign=middle;resizable=0;points=[];autosize=1;strokeColor=none;fillColor=none;" parent="1" vertex="1">
          <mxGeometry x="278.00000000000006" y="755" width="90" height="30" as="geometry" />
        </mxCell>
        <mxCell id="D7BMrgH4MtJiPT_WsUZ1-2" value="mem_offset" style="text;html=1;align=center;verticalAlign=middle;resizable=0;points=[];autosize=1;strokeColor=none;fillColor=none;fontSize=7;rotation=270;" parent="1" vertex="1">
          <mxGeometry x="19.5" y="771.5" width="60" height="20" as="geometry" />
        </mxCell>
        <mxCell id="j22CFw7xvZ7tALQSeu4C-1" value="" style="group" parent="1" vertex="1" connectable="0">
          <mxGeometry x="75" y="532" width="40" height="55" as="geometry" />
        </mxCell>
        <mxCell id="j22CFw7xvZ7tALQSeu4C-2" style="edgeStyle=orthogonalEdgeStyle;rounded=0;orthogonalLoop=1;jettySize=auto;html=1;exitX=0;exitY=0.5;exitDx=0;exitDy=0;endArrow=none;endFill=0;" parent="j22CFw7xvZ7tALQSeu4C-1" source="j22CFw7xvZ7tALQSeu4C-4" edge="1">
          <mxGeometry relative="1" as="geometry">
            <mxPoint x="-30" y="25.333333333333258" as="targetPoint" />
          </mxGeometry>
        </mxCell>
        <mxCell id="j22CFw7xvZ7tALQSeu4C-3" style="edgeStyle=orthogonalEdgeStyle;rounded=0;orthogonalLoop=1;jettySize=auto;html=1;exitX=1;exitY=0.5;exitDx=0;exitDy=0;endArrow=none;endFill=0;" parent="j22CFw7xvZ7tALQSeu4C-1" source="j22CFw7xvZ7tALQSeu4C-4" edge="1">
          <mxGeometry relative="1" as="geometry">
            <mxPoint x="60" y="25.333333333333258" as="targetPoint" />
          </mxGeometry>
        </mxCell>
        <mxCell id="j22CFw7xvZ7tALQSeu4C-4" value="&lt;font style=&quot;font-size: 10px;&quot;&gt;D&lt;/font&gt;&lt;font style=&quot;&quot;&gt;&lt;span style=&quot;font-size: 11px;&quot;&gt;&amp;nbsp; &amp;nbsp; &amp;nbsp; &lt;/span&gt;&lt;font style=&quot;font-size: 10px;&quot;&gt;&amp;nbsp;Q&lt;/font&gt;&lt;/font&gt;" style="rounded=0;whiteSpace=wrap;html=1;movable=1;resizable=1;rotatable=1;deletable=1;editable=1;locked=0;connectable=1;" parent="j22CFw7xvZ7tALQSeu4C-1" vertex="1">
          <mxGeometry width="40" height="50" as="geometry" />
        </mxCell>
        <mxCell id="j22CFw7xvZ7tALQSeu4C-5" value="" style="verticalLabelPosition=bottom;shadow=0;dashed=0;align=center;html=1;verticalAlign=top;shape=mxgraph.electrical.logic_gates.buffer2;direction=north;movable=1;resizable=1;rotatable=1;deletable=1;editable=1;locked=0;connectable=1;" parent="j22CFw7xvZ7tALQSeu4C-1" vertex="1">
          <mxGeometry x="17.5" y="40" width="5" height="15" as="geometry" />
        </mxCell>
        <mxCell id="j22CFw7xvZ7tALQSeu4C-6" value="" style="group" parent="1" vertex="1" connectable="0">
          <mxGeometry x="155" y="532" width="40" height="55" as="geometry" />
        </mxCell>
        <mxCell id="j22CFw7xvZ7tALQSeu4C-7" style="edgeStyle=orthogonalEdgeStyle;rounded=0;orthogonalLoop=1;jettySize=auto;html=1;exitX=0;exitY=0.5;exitDx=0;exitDy=0;endArrow=none;endFill=0;" parent="j22CFw7xvZ7tALQSeu4C-6" source="j22CFw7xvZ7tALQSeu4C-9" edge="1">
          <mxGeometry relative="1" as="geometry">
            <mxPoint x="-30" y="25.333333333333258" as="targetPoint" />
          </mxGeometry>
        </mxCell>
        <mxCell id="j22CFw7xvZ7tALQSeu4C-8" value="" style="group" parent="j22CFw7xvZ7tALQSeu4C-6" vertex="1" connectable="0">
          <mxGeometry width="40" height="55" as="geometry" />
        </mxCell>
        <mxCell id="j22CFw7xvZ7tALQSeu4C-9" value="&lt;font style=&quot;font-size: 10px;&quot;&gt;D&lt;/font&gt;&lt;font style=&quot;&quot;&gt;&lt;span style=&quot;font-size: 11px;&quot;&gt;&amp;nbsp; &amp;nbsp; &amp;nbsp; &lt;/span&gt;&lt;font style=&quot;font-size: 10px;&quot;&gt;&amp;nbsp;Q&lt;/font&gt;&lt;/font&gt;" style="rounded=0;whiteSpace=wrap;html=1;movable=1;resizable=1;rotatable=1;deletable=1;editable=1;locked=0;connectable=1;" parent="j22CFw7xvZ7tALQSeu4C-8" vertex="1">
          <mxGeometry x="10" width="40" height="50" as="geometry" />
        </mxCell>
        <mxCell id="j22CFw7xvZ7tALQSeu4C-10" value="" style="verticalLabelPosition=bottom;shadow=0;dashed=0;align=center;html=1;verticalAlign=top;shape=mxgraph.electrical.logic_gates.buffer2;direction=north;movable=1;resizable=1;rotatable=1;deletable=1;editable=1;locked=0;connectable=1;" parent="j22CFw7xvZ7tALQSeu4C-8" vertex="1">
          <mxGeometry x="27.5" y="40" width="5" height="15" as="geometry" />
        </mxCell>
        <mxCell id="j22CFw7xvZ7tALQSeu4C-11" value="new_clk" style="text;html=1;align=center;verticalAlign=middle;resizable=0;points=[];autosize=1;strokeColor=none;fillColor=none;fontSize=8;" parent="1" vertex="1">
          <mxGeometry x="70" y="587" width="50" height="20" as="geometry" />
        </mxCell>
        <mxCell id="j22CFw7xvZ7tALQSeu4C-12" value="new_clk" style="text;html=1;align=center;verticalAlign=middle;resizable=0;points=[];autosize=1;strokeColor=none;fillColor=none;fontSize=8;" parent="1" vertex="1">
          <mxGeometry x="160" y="587" width="50" height="20" as="geometry" />
        </mxCell>
        <mxCell id="j22CFw7xvZ7tALQSeu4C-13" value="reset" style="text;html=1;align=center;verticalAlign=middle;resizable=0;points=[];autosize=1;strokeColor=none;fillColor=none;fontSize=8;" parent="1" vertex="1">
          <mxGeometry x="20" y="542" width="40" height="20" as="geometry" />
        </mxCell>
        <mxCell id="j22CFw7xvZ7tALQSeu4C-14" value="reset_prime" style="text;html=1;align=center;verticalAlign=middle;resizable=0;points=[];autosize=1;strokeColor=none;fillColor=none;fontSize=8;" parent="1" vertex="1">
          <mxGeometry x="105" y="540" width="70" height="20" as="geometry" />
        </mxCell>
        <mxCell id="j22CFw7xvZ7tALQSeu4C-15" value="reset_sync" style="text;html=1;align=center;verticalAlign=middle;resizable=0;points=[];autosize=1;strokeColor=none;fillColor=none;fontSize=8;" parent="1" vertex="1">
          <mxGeometry x="205" y="567" width="60" height="20" as="geometry" />
        </mxCell>
        <mxCell id="j22CFw7xvZ7tALQSeu4C-17" value=". . ." style="text;html=1;align=center;verticalAlign=middle;resizable=0;points=[];autosize=1;strokeColor=none;fillColor=none;" parent="1" vertex="1">
          <mxGeometry x="390" y="557" width="40" height="30" as="geometry" />
        </mxCell>
        <mxCell id="j22CFw7xvZ7tALQSeu4C-18" value="" style="group" parent="1" vertex="1" connectable="0">
          <mxGeometry x="295" y="532" width="80" height="105" as="geometry" />
        </mxCell>
        <mxCell id="j22CFw7xvZ7tALQSeu4C-19" value="Debouncer" style="rounded=0;whiteSpace=wrap;html=1;" parent="j22CFw7xvZ7tALQSeu4C-18" vertex="1">
          <mxGeometry width="80" height="80" as="geometry" />
        </mxCell>
        <mxCell id="j22CFw7xvZ7tALQSeu4C-20" value="clk" style="text;html=1;align=center;verticalAlign=middle;resizable=0;points=[];autosize=1;strokeColor=none;fillColor=none;fontSize=8;" parent="j22CFw7xvZ7tALQSeu4C-18" vertex="1">
          <mxGeometry x="25" y="80" width="30" height="20" as="geometry" />
        </mxCell>
        <mxCell id="j22CFw7xvZ7tALQSeu4C-21" value="" style="verticalLabelPosition=bottom;shadow=0;dashed=0;align=center;html=1;verticalAlign=top;shape=mxgraph.electrical.logic_gates.buffer2;direction=north;movable=1;resizable=1;rotatable=1;deletable=1;editable=1;locked=0;connectable=1;" parent="j22CFw7xvZ7tALQSeu4C-18" vertex="1">
          <mxGeometry x="37.5" y="70" width="5" height="15" as="geometry" />
        </mxCell>
        <mxCell id="j22CFw7xvZ7tALQSeu4C-25" value="&lt;font style=&quot;font-size: 9px;&quot;&gt;new&lt;/font&gt;" style="text;html=1;align=center;verticalAlign=middle;resizable=0;points=[];autosize=1;strokeColor=none;fillColor=none;" parent="j22CFw7xvZ7tALQSeu4C-18" vertex="1">
          <mxGeometry x="-2.5" y="75" width="40" height="30" as="geometry" />
        </mxCell>
        <mxCell id="j22CFw7xvZ7tALQSeu4C-22" style="edgeStyle=orthogonalEdgeStyle;rounded=0;orthogonalLoop=1;jettySize=auto;html=1;exitX=1;exitY=0.5;exitDx=0;exitDy=0;endArrow=none;endFill=0;entryX=0;entryY=0.5;entryDx=0;entryDy=0;" parent="1" source="j22CFw7xvZ7tALQSeu4C-9" target="j22CFw7xvZ7tALQSeu4C-19" edge="1">
          <mxGeometry relative="1" as="geometry">
            <mxPoint x="235" y="557" as="targetPoint" />
          </mxGeometry>
        </mxCell>
        <mxCell id="j22CFw7xvZ7tALQSeu4C-23" style="edgeStyle=orthogonalEdgeStyle;rounded=0;orthogonalLoop=1;jettySize=auto;html=1;exitX=1;exitY=0.5;exitDx=0;exitDy=0;endArrow=none;endFill=0;" parent="1" source="j22CFw7xvZ7tALQSeu4C-19" target="j22CFw7xvZ7tALQSeu4C-17" edge="1">
          <mxGeometry relative="1" as="geometry" />
        </mxCell>
        <mxCell id="j22CFw7xvZ7tALQSeu4C-26" value="" style="verticalLabelPosition=bottom;shadow=0;dashed=0;align=center;html=1;verticalAlign=top;shape=mxgraph.electrical.logic_gates.buffer2;direction=north;movable=1;resizable=1;rotatable=1;deletable=1;editable=1;locked=0;connectable=1;" parent="1" vertex="1">
          <mxGeometry x="302.5" y="267.5" width="5" height="15" as="geometry" />
        </mxCell>
        <mxCell id="j22CFw7xvZ7tALQSeu4C-27" value="new_clk" style="text;html=1;align=center;verticalAlign=middle;resizable=0;points=[];autosize=1;strokeColor=none;fillColor=none;fontSize=8;" parent="1" vertex="1">
          <mxGeometry x="280" y="280" width="50" height="20" as="geometry" />
        </mxCell>
        <mxCell id="pVU6B8DjynMSReq9NZzx-124" value="Debouncer" style="rounded=0;whiteSpace=wrap;html=1;" parent="1" vertex="1">
          <mxGeometry x="55" y="60" width="80" height="80" as="geometry" />
        </mxCell>
        <mxCell id="pVU6B8DjynMSReq9NZzx-126" value="" style="verticalLabelPosition=bottom;shadow=0;dashed=0;align=center;html=1;verticalAlign=top;shape=mxgraph.electrical.logic_gates.buffer2;direction=north;movable=1;resizable=1;rotatable=1;deletable=1;editable=1;locked=0;connectable=1;" parent="1" vertex="1">
          <mxGeometry x="92.5" y="130" width="5" height="15" as="geometry" />
        </mxCell>
        <mxCell id="pVU6B8DjynMSReq9NZzx-187" value="Incrementer" style="rounded=0;whiteSpace=wrap;html=1;" parent="1" vertex="1">
          <mxGeometry x="175" y="60" width="80" height="80" as="geometry" />
        </mxCell>
        <mxCell id="pVU6B8DjynMSReq9NZzx-189" value="" style="verticalLabelPosition=bottom;shadow=0;dashed=0;align=center;html=1;verticalAlign=top;shape=mxgraph.electrical.logic_gates.buffer2;direction=north;movable=1;resizable=1;rotatable=1;deletable=1;editable=1;locked=0;connectable=1;" parent="1" vertex="1">
          <mxGeometry x="212.5" y="130" width="5" height="15" as="geometry" />
        </mxCell>
        <mxCell id="Qj3i2PbW-Iecref51nnk-1" value="new_clk" style="text;html=1;align=center;verticalAlign=middle;resizable=0;points=[];autosize=1;strokeColor=none;fillColor=none;fontSize=8;" parent="1" vertex="1">
          <mxGeometry x="190" y="145" width="50" height="20" as="geometry" />
        </mxCell>
        <mxCell id="Qj3i2PbW-Iecref51nnk-2" value="new_clk" style="text;html=1;align=center;verticalAlign=middle;resizable=0;points=[];autosize=1;strokeColor=none;fillColor=none;fontSize=8;" parent="1" vertex="1">
          <mxGeometry x="70" y="145" width="50" height="20" as="geometry" />
        </mxCell>
        <mxCell id="Qj3i2PbW-Iecref51nnk-3" value="&lt;font color=&quot;#878787&quot;&gt;&lt;i&gt;added clk cause of&amp;nbsp;&lt;br&gt;mem&lt;/i&gt;&lt;/font&gt;" style="text;html=1;align=center;verticalAlign=middle;resizable=0;points=[];autosize=1;strokeColor=none;fillColor=none;" parent="1" vertex="1">
          <mxGeometry x="250" y="295" width="130" height="40" as="geometry" />
        </mxCell>
        <mxCell id="8yiuOSP2LXqBUTXnLHSk-1" style="edgeStyle=orthogonalEdgeStyle;rounded=0;orthogonalLoop=1;jettySize=auto;html=1;exitX=0;exitY=0.5;exitDx=0;exitDy=0;endArrow=none;endFill=0;" parent="1" edge="1">
          <mxGeometry relative="1" as="geometry">
            <mxPoint x="35" y="209.5" as="targetPoint" />
            <mxPoint x="55" y="99.5" as="sourcePoint" />
          </mxGeometry>
        </mxCell>
        <mxCell id="8yiuOSP2LXqBUTXnLHSk-2" value="button" style="text;html=1;align=center;verticalAlign=middle;resizable=0;points=[];autosize=1;strokeColor=none;fillColor=none;fontSize=8;rotation=-90;" parent="1" vertex="1">
          <mxGeometry x="20" y="190.5" width="50" height="20" as="geometry" />
        </mxCell>
        <mxCell id="HSvkQyXQBypPWw5m_nFr-62" value="" style="group" parent="1" vertex="1" connectable="0">
          <mxGeometry x="810" y="660" width="520" height="480" as="geometry" />
        </mxCell>
        <mxCell id="HSvkQyXQBypPWw5m_nFr-45" value="" style="rounded=0;whiteSpace=wrap;html=1;" parent="HSvkQyXQBypPWw5m_nFr-62" vertex="1">
          <mxGeometry width="520" height="480" as="geometry" />
        </mxCell>
        <mxCell id="HSvkQyXQBypPWw5m_nFr-3" style="edgeStyle=orthogonalEdgeStyle;rounded=0;orthogonalLoop=1;jettySize=auto;html=1;exitX=1;exitY=0.5;exitDx=0;exitDy=0;entryX=0;entryY=0.5;entryDx=0;entryDy=0;endArrow=none;endFill=0;" parent="HSvkQyXQBypPWw5m_nFr-62" source="HSvkQyXQBypPWw5m_nFr-1" target="HSvkQyXQBypPWw5m_nFr-2" edge="1">
          <mxGeometry relative="1" as="geometry" />
        </mxCell>
        <mxCell id="HSvkQyXQBypPWw5m_nFr-1" value="Debouncer" style="rounded=0;whiteSpace=wrap;html=1;" parent="HSvkQyXQBypPWw5m_nFr-62" vertex="1">
          <mxGeometry x="60" y="33" width="80" height="80" as="geometry" />
        </mxCell>
        <mxCell id="HSvkQyXQBypPWw5m_nFr-2" value="to_Step" style="rounded=0;whiteSpace=wrap;html=1;" parent="HSvkQyXQBypPWw5m_nFr-62" vertex="1">
          <mxGeometry x="220" y="33" width="80" height="80" as="geometry" />
        </mxCell>
        <mxCell id="HSvkQyXQBypPWw5m_nFr-5" value="" style="endArrow=none;html=1;rounded=0;entryX=0;entryY=0.5;entryDx=0;entryDy=0;endFill=0;" parent="HSvkQyXQBypPWw5m_nFr-62" target="HSvkQyXQBypPWw5m_nFr-1" edge="1">
          <mxGeometry width="50" height="50" relative="1" as="geometry">
            <mxPoint y="73" as="sourcePoint" />
            <mxPoint x="840" y="258" as="targetPoint" />
          </mxGeometry>
        </mxCell>
        <mxCell id="HSvkQyXQBypPWw5m_nFr-6" value="Tx_WR" style="text;html=1;align=center;verticalAlign=middle;resizable=0;points=[];autosize=1;strokeColor=none;fillColor=none;" parent="HSvkQyXQBypPWw5m_nFr-62" vertex="1">
          <mxGeometry y="48" width="60" height="30" as="geometry" />
        </mxCell>
        <mxCell id="HSvkQyXQBypPWw5m_nFr-11" value="Debouncer" style="rounded=0;whiteSpace=wrap;html=1;" parent="HSvkQyXQBypPWw5m_nFr-62" vertex="1">
          <mxGeometry x="110" y="140" width="80" height="80" as="geometry" />
        </mxCell>
        <mxCell id="HSvkQyXQBypPWw5m_nFr-13" value="" style="endArrow=none;html=1;rounded=0;entryX=0;entryY=0.5;entryDx=0;entryDy=0;endFill=0;" parent="HSvkQyXQBypPWw5m_nFr-62" target="HSvkQyXQBypPWw5m_nFr-11" edge="1">
          <mxGeometry width="50" height="50" relative="1" as="geometry">
            <mxPoint y="179.40999999999997" as="sourcePoint" />
            <mxPoint x="60" y="179.40999999999997" as="targetPoint" />
          </mxGeometry>
        </mxCell>
        <mxCell id="HSvkQyXQBypPWw5m_nFr-14" value="Reset_sync" style="text;html=1;align=center;verticalAlign=middle;resizable=0;points=[];autosize=1;strokeColor=none;fillColor=none;" parent="HSvkQyXQBypPWw5m_nFr-62" vertex="1">
          <mxGeometry x="10" y="183" width="90" height="30" as="geometry" />
        </mxCell>
        <mxCell id="HSvkQyXQBypPWw5m_nFr-15" value="" style="whiteSpace=wrap;html=1;aspect=fixed;" parent="HSvkQyXQBypPWw5m_nFr-62" vertex="1">
          <mxGeometry y="279" width="14.5" height="14.5" as="geometry" />
        </mxCell>
        <mxCell id="HSvkQyXQBypPWw5m_nFr-19" value="" style="triangle;whiteSpace=wrap;html=1;" parent="HSvkQyXQBypPWw5m_nFr-62" vertex="1">
          <mxGeometry y="382.75" width="10" height="15.25" as="geometry" />
        </mxCell>
        <mxCell id="HSvkQyXQBypPWw5m_nFr-29" value="" style="group" parent="HSvkQyXQBypPWw5m_nFr-62" vertex="1" connectable="0">
          <mxGeometry y="248" width="20" height="21" as="geometry" />
        </mxCell>
        <mxCell id="HSvkQyXQBypPWw5m_nFr-24" value="" style="endArrow=none;html=1;rounded=0;" parent="HSvkQyXQBypPWw5m_nFr-29" edge="1">
          <mxGeometry width="50" height="50" relative="1" as="geometry">
            <mxPoint y="21" as="sourcePoint" />
            <mxPoint x="10" y="21" as="targetPoint" />
          </mxGeometry>
        </mxCell>
        <mxCell id="HSvkQyXQBypPWw5m_nFr-25" value="" style="endArrow=none;html=1;rounded=0;" parent="HSvkQyXQBypPWw5m_nFr-29" edge="1">
          <mxGeometry width="50" height="50" relative="1" as="geometry">
            <mxPoint as="sourcePoint" />
            <mxPoint x="10" as="targetPoint" />
          </mxGeometry>
        </mxCell>
        <mxCell id="HSvkQyXQBypPWw5m_nFr-26" value="" style="endArrow=none;html=1;rounded=0;" parent="HSvkQyXQBypPWw5m_nFr-29" edge="1">
          <mxGeometry width="50" height="50" relative="1" as="geometry">
            <mxPoint y="0.49218750000001826" as="sourcePoint" />
            <mxPoint y="21" as="targetPoint" />
          </mxGeometry>
        </mxCell>
        <mxCell id="HSvkQyXQBypPWw5m_nFr-27" value="" style="endArrow=none;html=1;rounded=0;" parent="HSvkQyXQBypPWw5m_nFr-29" edge="1">
          <mxGeometry width="50" height="50" relative="1" as="geometry">
            <mxPoint x="20" y="10.74609375000001" as="sourcePoint" />
            <mxPoint x="10" y="21" as="targetPoint" />
          </mxGeometry>
        </mxCell>
        <mxCell id="HSvkQyXQBypPWw5m_nFr-28" value="" style="endArrow=none;html=1;rounded=0;" parent="HSvkQyXQBypPWw5m_nFr-29" edge="1">
          <mxGeometry width="50" height="50" relative="1" as="geometry">
            <mxPoint x="10" y="0.49218750000001826" as="sourcePoint" />
            <mxPoint x="20" y="10.74609375000001" as="targetPoint" />
          </mxGeometry>
        </mxCell>
        <mxCell id="HSvkQyXQBypPWw5m_nFr-33" style="edgeStyle=orthogonalEdgeStyle;rounded=0;orthogonalLoop=1;jettySize=auto;html=1;exitX=1;exitY=0.5;exitDx=0;exitDy=0;entryX=-0.01;entryY=0.616;entryDx=0;entryDy=0;entryPerimeter=0;endArrow=none;endFill=0;" parent="HSvkQyXQBypPWw5m_nFr-62" source="HSvkQyXQBypPWw5m_nFr-15" target="HSvkQyXQBypPWw5m_nFr-4" edge="1">
          <mxGeometry relative="1" as="geometry" />
        </mxCell>
        <mxCell id="HSvkQyXQBypPWw5m_nFr-34" value="" style="endArrow=none;html=1;rounded=0;entryX=-0.015;entryY=0.551;entryDx=0;entryDy=0;entryPerimeter=0;endFill=0;" parent="HSvkQyXQBypPWw5m_nFr-62" target="HSvkQyXQBypPWw5m_nFr-4" edge="1">
          <mxGeometry width="50" height="50" relative="1" as="geometry">
            <mxPoint x="20" y="258" as="sourcePoint" />
            <mxPoint x="70" y="208" as="targetPoint" />
          </mxGeometry>
        </mxCell>
        <mxCell id="HSvkQyXQBypPWw5m_nFr-35" style="edgeStyle=orthogonalEdgeStyle;rounded=0;orthogonalLoop=1;jettySize=auto;html=1;exitX=1;exitY=0.5;exitDx=0;exitDy=0;entryX=-0.015;entryY=0.376;entryDx=0;entryDy=0;entryPerimeter=0;endArrow=none;endFill=0;" parent="HSvkQyXQBypPWw5m_nFr-62" source="HSvkQyXQBypPWw5m_nFr-11" target="HSvkQyXQBypPWw5m_nFr-4" edge="1">
          <mxGeometry relative="1" as="geometry" />
        </mxCell>
        <mxCell id="HSvkQyXQBypPWw5m_nFr-36" style="edgeStyle=orthogonalEdgeStyle;rounded=0;orthogonalLoop=1;jettySize=auto;html=1;exitX=1;exitY=0.5;exitDx=0;exitDy=0;entryX=0.012;entryY=0.139;entryDx=0;entryDy=0;entryPerimeter=0;endArrow=none;endFill=0;" parent="HSvkQyXQBypPWw5m_nFr-62" source="HSvkQyXQBypPWw5m_nFr-2" target="HSvkQyXQBypPWw5m_nFr-4" edge="1">
          <mxGeometry relative="1" as="geometry" />
        </mxCell>
        <mxCell id="HSvkQyXQBypPWw5m_nFr-37" value="Tx_DATA" style="text;html=1;align=center;verticalAlign=middle;resizable=0;points=[];autosize=1;strokeColor=none;fillColor=none;" parent="HSvkQyXQBypPWw5m_nFr-62" vertex="1">
          <mxGeometry x="20" y="225" width="70" height="30" as="geometry" />
        </mxCell>
        <mxCell id="HSvkQyXQBypPWw5m_nFr-38" value="Tx_EN" style="text;html=1;align=center;verticalAlign=middle;resizable=0;points=[];autosize=1;strokeColor=none;fillColor=none;" parent="HSvkQyXQBypPWw5m_nFr-62" vertex="1">
          <mxGeometry x="20" y="261.5" width="60" height="30" as="geometry" />
        </mxCell>
        <mxCell id="HSvkQyXQBypPWw5m_nFr-39" value="Clock" style="text;html=1;align=center;verticalAlign=middle;resizable=0;points=[];autosize=1;strokeColor=none;fillColor=none;" parent="HSvkQyXQBypPWw5m_nFr-62" vertex="1">
          <mxGeometry x="22" y="367" width="50" height="30" as="geometry" />
        </mxCell>
        <mxCell id="HSvkQyXQBypPWw5m_nFr-43" value="" style="group" parent="HSvkQyXQBypPWw5m_nFr-62" vertex="1" connectable="0">
          <mxGeometry x="350" y="10" width="90" height="450" as="geometry" />
        </mxCell>
        <mxCell id="HSvkQyXQBypPWw5m_nFr-55" style="edgeStyle=orthogonalEdgeStyle;rounded=0;orthogonalLoop=1;jettySize=auto;html=1;exitX=1;exitY=0.75;exitDx=0;exitDy=0;endArrow=none;endFill=0;" parent="HSvkQyXQBypPWw5m_nFr-43" source="HSvkQyXQBypPWw5m_nFr-4" edge="1">
          <mxGeometry relative="1" as="geometry">
            <mxPoint x="170" y="338" as="targetPoint" />
          </mxGeometry>
        </mxCell>
        <mxCell id="HSvkQyXQBypPWw5m_nFr-56" style="edgeStyle=orthogonalEdgeStyle;rounded=0;orthogonalLoop=1;jettySize=auto;html=1;exitX=1;exitY=0.5;exitDx=0;exitDy=0;endArrow=none;endFill=0;" parent="HSvkQyXQBypPWw5m_nFr-43" source="HSvkQyXQBypPWw5m_nFr-4" edge="1">
          <mxGeometry relative="1" as="geometry">
            <mxPoint x="170" y="225" as="targetPoint" />
          </mxGeometry>
        </mxCell>
        <mxCell id="HSvkQyXQBypPWw5m_nFr-4" value="Tx" style="rounded=1;whiteSpace=wrap;html=1;" parent="HSvkQyXQBypPWw5m_nFr-43" vertex="1">
          <mxGeometry width="90" height="450" as="geometry" />
        </mxCell>
        <mxCell id="HSvkQyXQBypPWw5m_nFr-42" value="" style="triangle;whiteSpace=wrap;html=1;" parent="HSvkQyXQBypPWw5m_nFr-43" vertex="1">
          <mxGeometry y="373.75" width="10" height="15.25" as="geometry" />
        </mxCell>
        <mxCell id="HSvkQyXQBypPWw5m_nFr-40" style="edgeStyle=orthogonalEdgeStyle;rounded=0;orthogonalLoop=1;jettySize=auto;html=1;exitX=0.5;exitY=1;exitDx=0;exitDy=0;" parent="HSvkQyXQBypPWw5m_nFr-43" source="HSvkQyXQBypPWw5m_nFr-4" target="HSvkQyXQBypPWw5m_nFr-4" edge="1">
          <mxGeometry relative="1" as="geometry" />
        </mxCell>
        <mxCell id="HSvkQyXQBypPWw5m_nFr-44" style="edgeStyle=orthogonalEdgeStyle;rounded=0;orthogonalLoop=1;jettySize=auto;html=1;exitX=1;exitY=0.5;exitDx=0;exitDy=0;endArrow=none;endFill=0;" parent="HSvkQyXQBypPWw5m_nFr-62" source="HSvkQyXQBypPWw5m_nFr-19" edge="1">
          <mxGeometry relative="1" as="geometry">
            <mxPoint x="350" y="391" as="targetPoint" />
          </mxGeometry>
        </mxCell>
        <mxCell id="HSvkQyXQBypPWw5m_nFr-48" value="" style="group" parent="HSvkQyXQBypPWw5m_nFr-62" vertex="1" connectable="0">
          <mxGeometry y="338" width="20" height="21" as="geometry" />
        </mxCell>
        <mxCell id="HSvkQyXQBypPWw5m_nFr-49" value="" style="endArrow=none;html=1;rounded=0;" parent="HSvkQyXQBypPWw5m_nFr-48" edge="1">
          <mxGeometry width="50" height="50" relative="1" as="geometry">
            <mxPoint y="21" as="sourcePoint" />
            <mxPoint x="10" y="21" as="targetPoint" />
          </mxGeometry>
        </mxCell>
        <mxCell id="HSvkQyXQBypPWw5m_nFr-50" value="" style="endArrow=none;html=1;rounded=0;" parent="HSvkQyXQBypPWw5m_nFr-48" edge="1">
          <mxGeometry width="50" height="50" relative="1" as="geometry">
            <mxPoint as="sourcePoint" />
            <mxPoint x="10" as="targetPoint" />
          </mxGeometry>
        </mxCell>
        <mxCell id="HSvkQyXQBypPWw5m_nFr-51" value="" style="endArrow=none;html=1;rounded=0;" parent="HSvkQyXQBypPWw5m_nFr-48" edge="1">
          <mxGeometry width="50" height="50" relative="1" as="geometry">
            <mxPoint y="0.49218750000001826" as="sourcePoint" />
            <mxPoint y="21" as="targetPoint" />
          </mxGeometry>
        </mxCell>
        <mxCell id="HSvkQyXQBypPWw5m_nFr-52" value="" style="endArrow=none;html=1;rounded=0;" parent="HSvkQyXQBypPWw5m_nFr-48" edge="1">
          <mxGeometry width="50" height="50" relative="1" as="geometry">
            <mxPoint x="20" y="10.74609375000001" as="sourcePoint" />
            <mxPoint x="10" y="21" as="targetPoint" />
          </mxGeometry>
        </mxCell>
        <mxCell id="HSvkQyXQBypPWw5m_nFr-53" value="" style="endArrow=none;html=1;rounded=0;" parent="HSvkQyXQBypPWw5m_nFr-48" edge="1">
          <mxGeometry width="50" height="50" relative="1" as="geometry">
            <mxPoint x="10" y="0.49218750000001826" as="sourcePoint" />
            <mxPoint x="20" y="10.74609375000001" as="targetPoint" />
          </mxGeometry>
        </mxCell>
        <mxCell id="HSvkQyXQBypPWw5m_nFr-47" value="" style="endArrow=none;html=1;rounded=0;endFill=0;" parent="HSvkQyXQBypPWw5m_nFr-48" edge="1">
          <mxGeometry width="50" height="50" relative="1" as="geometry">
            <mxPoint x="20" y="10" as="sourcePoint" />
            <mxPoint x="350" y="10" as="targetPoint" />
          </mxGeometry>
        </mxCell>
        <mxCell id="HSvkQyXQBypPWw5m_nFr-54" value="BAUD_RATE" style="text;html=1;align=center;verticalAlign=middle;resizable=0;points=[];autosize=1;strokeColor=none;fillColor=none;" parent="HSvkQyXQBypPWw5m_nFr-62" vertex="1">
          <mxGeometry x="20" y="320" width="90" height="30" as="geometry" />
        </mxCell>
        <mxCell id="HSvkQyXQBypPWw5m_nFr-57" value="TxD" style="text;html=1;align=center;verticalAlign=middle;resizable=0;points=[];autosize=1;strokeColor=none;fillColor=none;" parent="HSvkQyXQBypPWw5m_nFr-62" vertex="1">
          <mxGeometry x="460" y="205.5" width="50" height="30" as="geometry" />
        </mxCell>
        <mxCell id="HSvkQyXQBypPWw5m_nFr-58" value="Tx_BUSY" style="text;html=1;align=center;verticalAlign=middle;resizable=0;points=[];autosize=1;strokeColor=none;fillColor=none;" parent="HSvkQyXQBypPWw5m_nFr-62" vertex="1">
          <mxGeometry x="440" y="320" width="80" height="30" as="geometry" />
        </mxCell>
        <mxCell id="HSvkQyXQBypPWw5m_nFr-59" value="&lt;font color=&quot;#ff7661&quot;&gt;Sender&amp;nbsp; &amp;nbsp; &amp;nbsp; &amp;nbsp; &amp;nbsp;&amp;nbsp;&lt;/font&gt;" style="text;html=1;align=center;verticalAlign=middle;resizable=0;points=[];autosize=1;strokeColor=none;fillColor=none;" parent="HSvkQyXQBypPWw5m_nFr-62" vertex="1">
          <mxGeometry x="15" y="3" width="100" height="30" as="geometry" />
        </mxCell>
        <mxCell id="HSvkQyXQBypPWw5m_nFr-118" value="&lt;font color=&quot;#ff7661&quot;&gt;FDD&amp;nbsp;&lt;/font&gt;" style="text;html=1;align=center;verticalAlign=middle;resizable=0;points=[];autosize=1;strokeColor=none;fillColor=none;" parent="1" vertex="1">
          <mxGeometry x="9" y="30" width="50" height="30" as="geometry" />
        </mxCell>
        <mxCell id="HSvkQyXQBypPWw5m_nFr-150" value="" style="group" parent="1" vertex="1" connectable="0">
          <mxGeometry x="1343" y="660" width="730" height="480" as="geometry" />
        </mxCell>
        <mxCell id="HSvkQyXQBypPWw5m_nFr-64" value="" style="rounded=0;whiteSpace=wrap;html=1;" parent="HSvkQyXQBypPWw5m_nFr-150" vertex="1">
          <mxGeometry width="720" height="480" as="geometry" />
        </mxCell>
        <mxCell id="HSvkQyXQBypPWw5m_nFr-70" value="Debouncer" style="rounded=0;whiteSpace=wrap;html=1;" parent="HSvkQyXQBypPWw5m_nFr-150" vertex="1">
          <mxGeometry x="106.35761589403974" y="64.58923512747876" width="77.35099337748345" height="72.52124645892353" as="geometry" />
        </mxCell>
        <mxCell id="HSvkQyXQBypPWw5m_nFr-71" value="" style="endArrow=none;html=1;rounded=0;entryX=0;entryY=0.5;entryDx=0;entryDy=0;endFill=0;" parent="HSvkQyXQBypPWw5m_nFr-150" target="HSvkQyXQBypPWw5m_nFr-70" edge="1">
          <mxGeometry width="50" height="50" relative="1" as="geometry">
            <mxPoint y="100.31501416430594" as="sourcePoint" />
            <mxPoint x="58.01324503311258" y="100.31501416430594" as="targetPoint" />
          </mxGeometry>
        </mxCell>
        <mxCell id="HSvkQyXQBypPWw5m_nFr-72" value="Reset_sync" style="text;html=1;align=center;verticalAlign=middle;resizable=0;points=[];autosize=1;strokeColor=none;fillColor=none;" parent="HSvkQyXQBypPWw5m_nFr-150" vertex="1">
          <mxGeometry x="9.668874172185431" y="103.56940509915015" width="90" height="30" as="geometry" />
        </mxCell>
        <mxCell id="HSvkQyXQBypPWw5m_nFr-73" value="" style="whiteSpace=wrap;html=1;aspect=fixed;" parent="HSvkQyXQBypPWw5m_nFr-150" vertex="1">
          <mxGeometry y="244.98583569405102" width="13.144475920679888" height="13.144475920679888" as="geometry" />
        </mxCell>
        <mxCell id="HSvkQyXQBypPWw5m_nFr-74" value="" style="triangle;whiteSpace=wrap;html=1;" parent="HSvkQyXQBypPWw5m_nFr-150" vertex="1">
          <mxGeometry y="367.59206798866853" width="9.668874172185431" height="13.824362606232295" as="geometry" />
        </mxCell>
        <mxCell id="HSvkQyXQBypPWw5m_nFr-81" style="edgeStyle=orthogonalEdgeStyle;rounded=0;orthogonalLoop=1;jettySize=auto;html=1;exitX=1;exitY=0.5;exitDx=0;exitDy=0;entryX=0.004;entryY=0.547;entryDx=0;entryDy=0;entryPerimeter=0;endArrow=none;endFill=0;" parent="HSvkQyXQBypPWw5m_nFr-150" source="HSvkQyXQBypPWw5m_nFr-73" target="HSvkQyXQBypPWw5m_nFr-91" edge="1">
          <mxGeometry relative="1" as="geometry">
            <mxPoint x="337.54039735099377" y="252.4192634560907" as="targetPoint" />
            <Array as="points">
              <mxPoint x="175.97350993377484" y="251.7847025495751" />
              <mxPoint x="175.97350993377484" y="252.69121813031163" />
            </Array>
          </mxGeometry>
        </mxCell>
        <mxCell id="HSvkQyXQBypPWw5m_nFr-83" style="edgeStyle=orthogonalEdgeStyle;rounded=0;orthogonalLoop=1;jettySize=auto;html=1;exitX=1;exitY=0.5;exitDx=0;exitDy=0;entryX=0.011;entryY=0.174;entryDx=0;entryDy=0;entryPerimeter=0;endArrow=none;endFill=0;" parent="HSvkQyXQBypPWw5m_nFr-150" source="HSvkQyXQBypPWw5m_nFr-70" target="HSvkQyXQBypPWw5m_nFr-91" edge="1">
          <mxGeometry relative="1" as="geometry">
            <mxPoint x="337.10529801324515" y="100.12464589235132" as="targetPoint" />
          </mxGeometry>
        </mxCell>
        <mxCell id="HSvkQyXQBypPWw5m_nFr-86" value="Rx_EN" style="text;html=1;align=center;verticalAlign=middle;resizable=0;points=[];autosize=1;strokeColor=none;fillColor=none;" parent="HSvkQyXQBypPWw5m_nFr-150" vertex="1">
          <mxGeometry x="19.337748344370862" y="229.12181303116148" width="60" height="30" as="geometry" />
        </mxCell>
        <mxCell id="HSvkQyXQBypPWw5m_nFr-87" value="Clock" style="text;html=1;align=center;verticalAlign=middle;resizable=0;points=[];autosize=1;strokeColor=none;fillColor=none;" parent="HSvkQyXQBypPWw5m_nFr-150" vertex="1">
          <mxGeometry x="21.271523178807946" y="353.314447592068" width="50" height="30" as="geometry" />
        </mxCell>
        <mxCell id="HSvkQyXQBypPWw5m_nFr-88" value="" style="group" parent="HSvkQyXQBypPWw5m_nFr-150" vertex="1" connectable="0">
          <mxGeometry x="222.38410596026492" y="29.688385269121817" width="87.01986754966887" height="407.9320113314448" as="geometry" />
        </mxCell>
        <mxCell id="HSvkQyXQBypPWw5m_nFr-91" value="Rx" style="rounded=1;whiteSpace=wrap;html=1;" parent="HSvkQyXQBypPWw5m_nFr-88" vertex="1">
          <mxGeometry width="87.01986754966887" height="407.9320113314448" as="geometry" />
        </mxCell>
        <mxCell id="HSvkQyXQBypPWw5m_nFr-92" value="" style="triangle;whiteSpace=wrap;html=1;" parent="HSvkQyXQBypPWw5m_nFr-88" vertex="1">
          <mxGeometry y="338.8101983002834" width="9.66887417218543" height="13.824362606232297" as="geometry" />
        </mxCell>
        <mxCell id="HSvkQyXQBypPWw5m_nFr-93" style="edgeStyle=orthogonalEdgeStyle;rounded=0;orthogonalLoop=1;jettySize=auto;html=1;exitX=0.5;exitY=1;exitDx=0;exitDy=0;" parent="HSvkQyXQBypPWw5m_nFr-88" source="HSvkQyXQBypPWw5m_nFr-91" target="HSvkQyXQBypPWw5m_nFr-91" edge="1">
          <mxGeometry relative="1" as="geometry" />
        </mxCell>
        <mxCell id="HSvkQyXQBypPWw5m_nFr-94" style="edgeStyle=orthogonalEdgeStyle;rounded=0;orthogonalLoop=1;jettySize=auto;html=1;exitX=1;exitY=0.5;exitDx=0;exitDy=0;endArrow=none;endFill=0;entryX=0;entryY=0.5;entryDx=0;entryDy=0;" parent="HSvkQyXQBypPWw5m_nFr-150" source="HSvkQyXQBypPWw5m_nFr-74" target="HSvkQyXQBypPWw5m_nFr-92" edge="1">
          <mxGeometry relative="1" as="geometry">
            <mxPoint x="338.4105960264901" y="375.07082152974505" as="targetPoint" />
            <Array as="points">
              <mxPoint x="174.03973509933775" y="374.1643059490085" />
              <mxPoint x="174.03973509933775" y="375.07082152974505" />
            </Array>
          </mxGeometry>
        </mxCell>
        <mxCell id="HSvkQyXQBypPWw5m_nFr-102" value="BAUD_RATE" style="text;html=1;align=center;verticalAlign=middle;resizable=0;points=[];autosize=1;strokeColor=none;fillColor=none;" parent="HSvkQyXQBypPWw5m_nFr-150" vertex="1">
          <mxGeometry x="19.337748344370862" y="275.35410764872523" width="90" height="30" as="geometry" />
        </mxCell>
        <mxCell id="HSvkQyXQBypPWw5m_nFr-105" value="&lt;font color=&quot;#ff7661&quot;&gt;Listener&lt;/font&gt;" style="text;html=1;align=center;verticalAlign=middle;resizable=0;points=[];autosize=1;strokeColor=none;fillColor=none;" parent="HSvkQyXQBypPWw5m_nFr-150" vertex="1">
          <mxGeometry x="15.966887417218544" y="3.39943342776204" width="70" height="30" as="geometry" />
        </mxCell>
        <mxCell id="HSvkQyXQBypPWw5m_nFr-106" value="" style="whiteSpace=wrap;html=1;aspect=fixed;" parent="HSvkQyXQBypPWw5m_nFr-150" vertex="1">
          <mxGeometry x="0.9668874172185431" y="180.6232294617564" width="13.144475920679888" height="13.144475920679888" as="geometry" />
        </mxCell>
        <mxCell id="HSvkQyXQBypPWw5m_nFr-107" style="edgeStyle=orthogonalEdgeStyle;rounded=0;orthogonalLoop=1;jettySize=auto;html=1;exitX=1;exitY=0.5;exitDx=0;exitDy=0;entryX=0.004;entryY=0.386;entryDx=0;entryDy=0;entryPerimeter=0;endArrow=none;endFill=0;" parent="HSvkQyXQBypPWw5m_nFr-150" source="HSvkQyXQBypPWw5m_nFr-106" target="HSvkQyXQBypPWw5m_nFr-91" edge="1">
          <mxGeometry relative="1" as="geometry">
            <mxPoint x="338.4105960264901" y="187.87535410764872" as="targetPoint" />
            <Array as="points" />
          </mxGeometry>
        </mxCell>
        <mxCell id="HSvkQyXQBypPWw5m_nFr-108" value="RxD" style="text;html=1;align=center;verticalAlign=middle;resizable=0;points=[];autosize=1;strokeColor=none;fillColor=none;" parent="HSvkQyXQBypPWw5m_nFr-150" vertex="1">
          <mxGeometry x="19.337748344370862" y="164.75920679886687" width="50" height="30" as="geometry" />
        </mxCell>
        <mxCell id="HSvkQyXQBypPWw5m_nFr-101" value="" style="endArrow=none;html=1;rounded=0;endFill=0;entryX=-0.027;entryY=0.665;entryDx=0;entryDy=0;entryPerimeter=0;" parent="HSvkQyXQBypPWw5m_nFr-150" target="HSvkQyXQBypPWw5m_nFr-91" edge="1">
          <mxGeometry width="50" height="50" relative="1" as="geometry">
            <mxPoint x="19.337748344370862" y="300.7365439093484" as="sourcePoint" />
            <mxPoint x="338.4105960264901" y="300.7365439093484" as="targetPoint" />
          </mxGeometry>
        </mxCell>
        <mxCell id="HSvkQyXQBypPWw5m_nFr-109" value="" style="group" parent="HSvkQyXQBypPWw5m_nFr-150" vertex="1" connectable="0">
          <mxGeometry y="291.67138810198304" width="19.337748344370862" height="19.03682719546742" as="geometry" />
        </mxCell>
        <mxCell id="HSvkQyXQBypPWw5m_nFr-96" value="" style="endArrow=none;html=1;rounded=0;" parent="HSvkQyXQBypPWw5m_nFr-109" edge="1">
          <mxGeometry width="50" height="50" relative="1" as="geometry">
            <mxPoint y="19.03682719546742" as="sourcePoint" />
            <mxPoint x="9.668874172185431" y="19.03682719546742" as="targetPoint" />
          </mxGeometry>
        </mxCell>
        <mxCell id="HSvkQyXQBypPWw5m_nFr-97" value="" style="endArrow=none;html=1;rounded=0;" parent="HSvkQyXQBypPWw5m_nFr-109" edge="1">
          <mxGeometry width="50" height="50" relative="1" as="geometry">
            <mxPoint as="sourcePoint" />
            <mxPoint x="9.668874172185431" as="targetPoint" />
          </mxGeometry>
        </mxCell>
        <mxCell id="HSvkQyXQBypPWw5m_nFr-98" value="" style="endArrow=none;html=1;rounded=0;" parent="HSvkQyXQBypPWw5m_nFr-109" edge="1">
          <mxGeometry width="50" height="50" relative="1" as="geometry">
            <mxPoint y="0.44617563739376764" as="sourcePoint" />
            <mxPoint y="19.03682719546742" as="targetPoint" />
          </mxGeometry>
        </mxCell>
        <mxCell id="HSvkQyXQBypPWw5m_nFr-99" value="" style="endArrow=none;html=1;rounded=0;" parent="HSvkQyXQBypPWw5m_nFr-109" edge="1">
          <mxGeometry width="50" height="50" relative="1" as="geometry">
            <mxPoint x="19.337748344370862" y="9.741501416430594" as="sourcePoint" />
            <mxPoint x="9.668874172185431" y="19.03682719546742" as="targetPoint" />
          </mxGeometry>
        </mxCell>
        <mxCell id="HSvkQyXQBypPWw5m_nFr-100" value="" style="endArrow=none;html=1;rounded=0;" parent="HSvkQyXQBypPWw5m_nFr-109" edge="1">
          <mxGeometry width="50" height="50" relative="1" as="geometry">
            <mxPoint x="9.668874172185431" y="0.44617563739376764" as="sourcePoint" />
            <mxPoint x="19.337748344370862" y="9.741501416430594" as="targetPoint" />
          </mxGeometry>
        </mxCell>
        <mxCell id="HSvkQyXQBypPWw5m_nFr-138" style="edgeStyle=orthogonalEdgeStyle;rounded=0;orthogonalLoop=1;jettySize=auto;html=1;exitX=0.25;exitY=0;exitDx=0;exitDy=0;endArrow=none;endFill=0;" parent="HSvkQyXQBypPWw5m_nFr-150" source="HSvkQyXQBypPWw5m_nFr-119" edge="1">
          <mxGeometry relative="1" as="geometry">
            <mxPoint x="203.04635761589404" y="98.58356940509915" as="targetPoint" />
            <Array as="points">
              <mxPoint x="447.66887417218544" y="7.93201133144476" />
              <mxPoint x="204.01324503311258" y="7.93201133144476" />
              <mxPoint x="204.01324503311258" y="98.58356940509915" />
            </Array>
          </mxGeometry>
        </mxCell>
        <mxCell id="HSvkQyXQBypPWw5m_nFr-142" style="edgeStyle=orthogonalEdgeStyle;rounded=0;orthogonalLoop=1;jettySize=auto;html=1;exitX=1;exitY=0.25;exitDx=0;exitDy=0;" parent="HSvkQyXQBypPWw5m_nFr-150" source="HSvkQyXQBypPWw5m_nFr-119" edge="1">
          <mxGeometry relative="1" as="geometry">
            <mxPoint x="715.4966887417219" y="243.88506677458534" as="targetPoint" />
          </mxGeometry>
        </mxCell>
        <mxCell id="HSvkQyXQBypPWw5m_nFr-119" value="FFD" style="rounded=0;whiteSpace=wrap;html=1;" parent="HSvkQyXQBypPWw5m_nFr-150" vertex="1">
          <mxGeometry x="386.75496688741725" y="193.76770538243628" width="241.72185430463577" height="199.43342776203968" as="geometry" />
        </mxCell>
        <mxCell id="HSvkQyXQBypPWw5m_nFr-121" value="" style="endArrow=none;html=1;rounded=0;endFill=0;" parent="HSvkQyXQBypPWw5m_nFr-150" edge="1">
          <mxGeometry width="50" height="50" relative="1" as="geometry">
            <mxPoint x="309.4039735099338" y="279.886685552408" as="sourcePoint" />
            <mxPoint x="328.74172185430467" y="279.886685552408" as="targetPoint" />
          </mxGeometry>
        </mxCell>
        <mxCell id="HSvkQyXQBypPWw5m_nFr-122" value="" style="endArrow=none;html=1;rounded=0;endFill=0;entryX=0.097;entryY=-0.108;entryDx=0;entryDy=0;entryPerimeter=0;" parent="HSvkQyXQBypPWw5m_nFr-150" target="HSvkQyXQBypPWw5m_nFr-129" edge="1">
          <mxGeometry width="50" height="50" relative="1" as="geometry">
            <mxPoint x="309.4039735099338" y="302.54957507082156" as="sourcePoint" />
            <mxPoint x="357.74834437086093" y="302.54957507082156" as="targetPoint" />
          </mxGeometry>
        </mxCell>
        <mxCell id="HSvkQyXQBypPWw5m_nFr-123" value="" style="endArrow=none;html=1;rounded=0;endFill=0;" parent="HSvkQyXQBypPWw5m_nFr-150" edge="1">
          <mxGeometry width="50" height="50" relative="1" as="geometry">
            <mxPoint x="309.4039735099338" y="326.1189801699717" as="sourcePoint" />
            <mxPoint x="386.75496688741725" y="325.21246458923514" as="targetPoint" />
          </mxGeometry>
        </mxCell>
        <mxCell id="HSvkQyXQBypPWw5m_nFr-124" value="" style="endArrow=none;html=1;rounded=0;endFill=0;" parent="HSvkQyXQBypPWw5m_nFr-150" edge="1">
          <mxGeometry width="50" height="50" relative="1" as="geometry">
            <mxPoint x="309.4039735099338" y="352.40793201133147" as="sourcePoint" />
            <mxPoint x="319.07284768211923" y="352.40793201133147" as="targetPoint" />
          </mxGeometry>
        </mxCell>
        <mxCell id="HSvkQyXQBypPWw5m_nFr-125" value="" style="endArrow=none;html=1;rounded=0;endFill=0;" parent="HSvkQyXQBypPWw5m_nFr-150" edge="1">
          <mxGeometry width="50" height="50" relative="1" as="geometry">
            <mxPoint x="309.4039735099338" y="216.43059490084988" as="sourcePoint" />
            <mxPoint x="386.75496688741725" y="216.43059490084988" as="targetPoint" />
          </mxGeometry>
        </mxCell>
        <mxCell id="HSvkQyXQBypPWw5m_nFr-110" value="" style="group" parent="HSvkQyXQBypPWw5m_nFr-150" vertex="1" connectable="0">
          <mxGeometry x="386.75496688741725" y="207.36543909348444" width="19.337748344370862" height="19.03682719546742" as="geometry" />
        </mxCell>
        <mxCell id="HSvkQyXQBypPWw5m_nFr-111" value="" style="endArrow=none;html=1;rounded=0;" parent="HSvkQyXQBypPWw5m_nFr-110" edge="1">
          <mxGeometry width="50" height="50" relative="1" as="geometry">
            <mxPoint y="19.03682719546742" as="sourcePoint" />
            <mxPoint x="9.668874172185431" y="19.03682719546742" as="targetPoint" />
          </mxGeometry>
        </mxCell>
        <mxCell id="HSvkQyXQBypPWw5m_nFr-112" value="" style="endArrow=none;html=1;rounded=0;" parent="HSvkQyXQBypPWw5m_nFr-110" edge="1">
          <mxGeometry width="50" height="50" relative="1" as="geometry">
            <mxPoint as="sourcePoint" />
            <mxPoint x="9.668874172185431" as="targetPoint" />
          </mxGeometry>
        </mxCell>
        <mxCell id="HSvkQyXQBypPWw5m_nFr-113" value="" style="endArrow=none;html=1;rounded=0;" parent="HSvkQyXQBypPWw5m_nFr-110" edge="1">
          <mxGeometry width="50" height="50" relative="1" as="geometry">
            <mxPoint y="0.44617563739376764" as="sourcePoint" />
            <mxPoint y="19.03682719546742" as="targetPoint" />
          </mxGeometry>
        </mxCell>
        <mxCell id="HSvkQyXQBypPWw5m_nFr-114" value="" style="endArrow=none;html=1;rounded=0;" parent="HSvkQyXQBypPWw5m_nFr-110" edge="1">
          <mxGeometry width="50" height="50" relative="1" as="geometry">
            <mxPoint x="19.337748344370862" y="9.741501416430594" as="sourcePoint" />
            <mxPoint x="9.668874172185431" y="19.03682719546742" as="targetPoint" />
          </mxGeometry>
        </mxCell>
        <mxCell id="HSvkQyXQBypPWw5m_nFr-115" value="" style="endArrow=none;html=1;rounded=0;" parent="HSvkQyXQBypPWw5m_nFr-110" edge="1">
          <mxGeometry width="50" height="50" relative="1" as="geometry">
            <mxPoint x="9.668874172185431" y="0.44617563739376764" as="sourcePoint" />
            <mxPoint x="19.337748344370862" y="9.741501416430594" as="targetPoint" />
          </mxGeometry>
        </mxCell>
        <mxCell id="HSvkQyXQBypPWw5m_nFr-126" value="Byte" style="text;html=1;align=center;verticalAlign=middle;resizable=0;points=[];autosize=1;strokeColor=none;fillColor=none;" parent="HSvkQyXQBypPWw5m_nFr-150" vertex="1">
          <mxGeometry x="328.74172185430467" y="193.76770538243628" width="50" height="30" as="geometry" />
        </mxCell>
        <mxCell id="HSvkQyXQBypPWw5m_nFr-127" value="Rx_F" style="text;html=1;align=center;verticalAlign=middle;resizable=0;points=[];autosize=1;strokeColor=none;fillColor=none;" parent="HSvkQyXQBypPWw5m_nFr-150" vertex="1">
          <mxGeometry x="328.74172185430467" y="258.13031161473094" width="50" height="30" as="geometry" />
        </mxCell>
        <mxCell id="HSvkQyXQBypPWw5m_nFr-128" value="Rx_P&lt;span style=&quot;color: rgba(0, 0, 0, 0); font-family: monospace; font-size: 0px; text-align: start;&quot;&gt;%3CmxGraphModel%3E%3Croot%3E%3CmxCell%20id%3D%220%22%2F%3E%3CmxCell%20id%3D%221%22%20parent%3D%220%22%2F%3E%3CmxCell%20id%3D%222%22%20value%3D%22Rx_F%22%20style%3D%22text%3Bhtml%3D1%3Balign%3Dcenter%3BverticalAlign%3Dmiddle%3Bresizable%3D0%3Bpoints%3D%5B%5D%3Bautosize%3D1%3BstrokeColor%3Dnone%3BfillColor%3Dnone%3B%22%20vertex%3D%221%22%20parent%3D%221%22%3E%3CmxGeometry%20x%3D%221290%22%20y%3D%22366%22%20width%3D%2250%22%20height%3D%2230%22%20as%3D%22geometry%22%2F%3E%3C%2FmxCell%3E%3C%2Froot%3E%3C%2FmxGraphModel%3E&lt;/span&gt;" style="text;html=1;align=center;verticalAlign=middle;resizable=0;points=[];autosize=1;strokeColor=none;fillColor=none;" parent="HSvkQyXQBypPWw5m_nFr-150" vertex="1">
          <mxGeometry x="309.4039735099338" y="279.886685552408" width="50" height="30" as="geometry" />
        </mxCell>
        <mxCell id="HSvkQyXQBypPWw5m_nFr-129" value="Rx_V&lt;span style=&quot;color: rgba(0, 0, 0, 0); font-family: monospace; font-size: 0px; text-align: start;&quot;&gt;%3CmxGraphModel%3E%3Croot%3E%3CmxCell%20id%3D%220%22%2F%3E%3CmxCell%20id%3D%221%22%20parent%3D%220%22%2F%3E%3CmxCell%20id%3D%222%22%20value%3D%22Rx_F%22%20style%3D%22text%3Bhtml%3D1%3Balign%3Dcenter%3BverticalAlign%3Dmiddle%3Bresizable%3D0%3Bpoints%3D%5B%5D%3Bautosize%3D1%3BstrokeColor%3Dnone%3BfillColor%3Dnone%3B%22%20vertex%3D%221%22%20parent%3D%221%22%3E%3CmxGeometry%20x%3D%221290%22%20y%3D%22366%22%20width%3D%2250%22%20height%3D%2230%22%20as%3D%22geometry%22%2F%3E%3C%2FmxCell%3E%3C%2Froot%3E%3C%2FmxGraphModel%3V&lt;/span&gt;" style="text;html=1;align=center;verticalAlign=middle;resizable=0;points=[];autosize=1;strokeColor=none;fillColor=none;" parent="HSvkQyXQBypPWw5m_nFr-150" vertex="1">
          <mxGeometry x="309.4039735099338" y="304.36260623229464" width="50" height="30" as="geometry" />
        </mxCell>
        <mxCell id="HSvkQyXQBypPWw5m_nFr-130" value="" style="verticalLabelPosition=bottom;shadow=0;dashed=0;align=center;html=1;verticalAlign=top;shape=mxgraph.electrical.logic_gates.logic_gate;operation=or;direction=east;" parent="HSvkQyXQBypPWw5m_nFr-150" vertex="1">
          <mxGeometry x="352.91390728476824" y="226.40226628895186" width="33.84105960264901" height="22.6628895184136" as="geometry" />
        </mxCell>
        <mxCell id="HSvkQyXQBypPWw5m_nFr-133" style="edgeStyle=orthogonalEdgeStyle;rounded=0;orthogonalLoop=1;jettySize=auto;html=1;exitX=0;exitY=0.75;exitDx=0;exitDy=0;exitPerimeter=0;entryX=-0.06;entryY=0.8;entryDx=0;entryDy=0;entryPerimeter=0;endArrow=none;endFill=0;" parent="HSvkQyXQBypPWw5m_nFr-150" source="HSvkQyXQBypPWw5m_nFr-130" target="HSvkQyXQBypPWw5m_nFr-127" edge="1">
          <mxGeometry relative="1" as="geometry" />
        </mxCell>
        <mxCell id="HSvkQyXQBypPWw5m_nFr-134" style="edgeStyle=orthogonalEdgeStyle;rounded=0;orthogonalLoop=1;jettySize=auto;html=1;exitX=0;exitY=0.25;exitDx=0;exitDy=0;exitPerimeter=0;entryX=0.1;entryY=-0.067;entryDx=0;entryDy=0;entryPerimeter=0;endArrow=none;endFill=0;" parent="HSvkQyXQBypPWw5m_nFr-150" source="HSvkQyXQBypPWw5m_nFr-130" target="HSvkQyXQBypPWw5m_nFr-129" edge="1">
          <mxGeometry relative="1" as="geometry" />
        </mxCell>
        <mxCell id="HSvkQyXQBypPWw5m_nFr-136" value="Error" style="text;html=1;align=center;verticalAlign=middle;resizable=0;points=[];autosize=1;strokeColor=none;fillColor=none;" parent="HSvkQyXQBypPWw5m_nFr-150" vertex="1">
          <mxGeometry x="377.0860927152318" y="225.49575070821533" width="50" height="30" as="geometry" />
        </mxCell>
        <mxCell id="HSvkQyXQBypPWw5m_nFr-137" value="Append" style="text;html=1;align=center;verticalAlign=middle;resizable=0;points=[];autosize=1;strokeColor=none;fillColor=none;" parent="HSvkQyXQBypPWw5m_nFr-150" vertex="1">
          <mxGeometry x="386.75496688741725" y="317.9603399433428" width="60" height="30" as="geometry" />
        </mxCell>
        <mxCell id="HSvkQyXQBypPWw5m_nFr-140" style="edgeStyle=orthogonalEdgeStyle;rounded=0;orthogonalLoop=1;jettySize=auto;html=1;exitX=0;exitY=0.5;exitDx=0;exitDy=0;endArrow=none;endFill=0;" parent="HSvkQyXQBypPWw5m_nFr-150" source="HSvkQyXQBypPWw5m_nFr-139" edge="1">
          <mxGeometry relative="1" as="geometry">
            <mxPoint x="116.02649006622516" y="370.53824362606235" as="targetPoint" />
            <Array as="points">
              <mxPoint x="437.0331125827815" y="452.12464589235134" />
              <mxPoint x="116.99337748344371" y="452.12464589235134" />
              <mxPoint x="116.99337748344371" y="370.53824362606235" />
            </Array>
          </mxGeometry>
        </mxCell>
        <mxCell id="HSvkQyXQBypPWw5m_nFr-139" value="" style="triangle;whiteSpace=wrap;html=1;direction=north;" parent="HSvkQyXQBypPWw5m_nFr-150" vertex="1">
          <mxGeometry x="430.02801324503326" y="384.1314447592068" width="14.745033112582782" height="9.065155807365441" as="geometry" />
        </mxCell>
        <mxCell id="HSvkQyXQBypPWw5m_nFr-141" value="parity" style="text;html=1;align=center;verticalAlign=middle;resizable=0;points=[];autosize=1;strokeColor=none;fillColor=none;" parent="HSvkQyXQBypPWw5m_nFr-150" vertex="1">
          <mxGeometry x="309.4039735099338" y="352.40793201133147" width="50" height="30" as="geometry" />
        </mxCell>
        <mxCell id="HSvkQyXQBypPWw5m_nFr-143" value="&lt;div&gt;&amp;nbsp; &amp;nbsp;8&lt;/div&gt;/" style="text;html=1;align=center;verticalAlign=middle;resizable=0;points=[];autosize=1;strokeColor=none;fillColor=none;" parent="HSvkQyXQBypPWw5m_nFr-150" vertex="1">
          <mxGeometry x="657.4834437086093" y="218.69688385269126" width="40" height="40" as="geometry" />
        </mxCell>
        <mxCell id="HSvkQyXQBypPWw5m_nFr-145" value="LEDs" style="text;html=1;align=center;verticalAlign=middle;resizable=0;points=[];autosize=1;strokeColor=none;fillColor=none;" parent="HSvkQyXQBypPWw5m_nFr-150" vertex="1">
          <mxGeometry x="676.8211920529802" y="244.98583569405102" width="50" height="30" as="geometry" />
        </mxCell>
        <mxCell id="HSvkQyXQBypPWw5m_nFr-146" style="edgeStyle=orthogonalEdgeStyle;rounded=0;orthogonalLoop=1;jettySize=auto;html=1;exitX=1;exitY=0.25;exitDx=0;exitDy=0;" parent="HSvkQyXQBypPWw5m_nFr-150" edge="1">
          <mxGeometry relative="1" as="geometry">
            <mxPoint x="715.4966887417219" y="324.1116956697695" as="targetPoint" />
            <mxPoint x="628.476821192053" y="323.85269121813036" as="sourcePoint" />
          </mxGeometry>
        </mxCell>
        <mxCell id="HSvkQyXQBypPWw5m_nFr-147" value="&lt;div&gt;&amp;nbsp; &amp;nbsp;4&lt;/div&gt;/" style="text;html=1;align=center;verticalAlign=middle;resizable=0;points=[];autosize=1;strokeColor=none;fillColor=none;" parent="HSvkQyXQBypPWw5m_nFr-150" vertex="1">
          <mxGeometry x="657.4834437086093" y="298.92351274787535" width="40" height="40" as="geometry" />
        </mxCell>
        <mxCell id="HSvkQyXQBypPWw5m_nFr-148" value="Anodes" style="text;html=1;align=center;verticalAlign=middle;resizable=0;points=[];autosize=1;strokeColor=none;fillColor=none;" parent="HSvkQyXQBypPWw5m_nFr-150" vertex="1">
          <mxGeometry x="671.9867549668875" y="325.21246458923514" width="60" height="30" as="geometry" />
        </mxCell>
        <mxCell id="HSvkQyXQBypPWw5m_nFr-151" value="Sender" style="whiteSpace=wrap;html=1;aspect=fixed;" parent="1" vertex="1">
          <mxGeometry x="690.9200000000001" y="157.5" width="80" height="80" as="geometry" />
        </mxCell>
        <mxCell id="HSvkQyXQBypPWw5m_nFr-152" value="Listener" style="whiteSpace=wrap;html=1;aspect=fixed;" parent="1" vertex="1">
          <mxGeometry x="1020.9200000000001" y="159.5" width="80" height="80" as="geometry" />
        </mxCell>
        <mxCell id="HSvkQyXQBypPWw5m_nFr-153" value="" style="endArrow=none;html=1;rounded=0;" parent="1" edge="1">
          <mxGeometry width="50" height="50" relative="1" as="geometry">
            <mxPoint x="770.9200000000001" y="197.5" as="sourcePoint" />
            <mxPoint x="810.9200000000001" y="197.5" as="targetPoint" />
          </mxGeometry>
        </mxCell>
        <mxCell id="HSvkQyXQBypPWw5m_nFr-154" value="" style="endArrow=none;html=1;rounded=0;" parent="1" edge="1">
          <mxGeometry width="50" height="50" relative="1" as="geometry">
            <mxPoint x="980.9200000000001" y="198.79000000000002" as="sourcePoint" />
            <mxPoint x="1020.9200000000001" y="198.79000000000002" as="targetPoint" />
          </mxGeometry>
        </mxCell>
        <mxCell id="HSvkQyXQBypPWw5m_nFr-156" value="" style="endArrow=none;dashed=1;html=1;dashPattern=1 3;strokeWidth=2;rounded=0;" parent="1" edge="1">
          <mxGeometry width="50" height="50" relative="1" as="geometry">
            <mxPoint x="810.9200000000001" y="197.5" as="sourcePoint" />
            <mxPoint x="870.9200000000001" y="197.5" as="targetPoint" />
          </mxGeometry>
        </mxCell>
        <mxCell id="HSvkQyXQBypPWw5m_nFr-157" value="" style="endArrow=none;dashed=1;html=1;dashPattern=1 3;strokeWidth=2;rounded=0;" parent="1" edge="1">
          <mxGeometry width="50" height="50" relative="1" as="geometry">
            <mxPoint x="920.9200000000001" y="198.79000000000002" as="sourcePoint" />
            <mxPoint x="980.9200000000001" y="198.79000000000002" as="targetPoint" />
          </mxGeometry>
        </mxCell>
        <mxCell id="HSvkQyXQBypPWw5m_nFr-163" style="edgeStyle=orthogonalEdgeStyle;rounded=0;orthogonalLoop=1;jettySize=auto;html=1;exitX=1;exitY=0.5;exitDx=0;exitDy=0;entryX=0.5;entryY=1;entryDx=0;entryDy=0;" parent="1" source="HSvkQyXQBypPWw5m_nFr-159" target="HSvkQyXQBypPWw5m_nFr-151" edge="1">
          <mxGeometry relative="1" as="geometry" />
        </mxCell>
        <mxCell id="HSvkQyXQBypPWw5m_nFr-159" value="mem&lt;br&gt;&lt;br&gt;FF&lt;br&gt;&lt;br&gt;&lt;br&gt;15&lt;br&gt;&lt;br&gt;&lt;br&gt;55&lt;br&gt;&lt;br&gt;&lt;div&gt;&amp;nbsp;&lt;br&gt;55&lt;/div&gt;" style="shape=internalStorage;whiteSpace=wrap;html=1;backgroundOutline=1;" parent="1" vertex="1">
          <mxGeometry x="820" y="340" width="210" height="183" as="geometry" />
        </mxCell>
        <mxCell id="HSvkQyXQBypPWw5m_nFr-160" value="" style="endArrow=none;html=1;rounded=0;entryX=0.993;entryY=0.338;entryDx=0;entryDy=0;entryPerimeter=0;" parent="1" target="HSvkQyXQBypPWw5m_nFr-159" edge="1">
          <mxGeometry width="50" height="50" relative="1" as="geometry">
            <mxPoint x="840" y="403" as="sourcePoint" />
            <mxPoint x="890" y="353" as="targetPoint" />
          </mxGeometry>
        </mxCell>
        <mxCell id="HSvkQyXQBypPWw5m_nFr-161" value="" style="endArrow=none;html=1;rounded=0;entryX=1.006;entryY=0.338;entryDx=0;entryDy=0;entryPerimeter=0;" parent="1" edge="1">
          <mxGeometry width="50" height="50" relative="1" as="geometry">
            <mxPoint x="839" y="444.5" as="sourcePoint" />
            <mxPoint x="1030" y="443.5" as="targetPoint" />
          </mxGeometry>
        </mxCell>
        <mxCell id="HSvkQyXQBypPWw5m_nFr-162" value="" style="endArrow=none;html=1;rounded=0;entryX=1.006;entryY=0.338;entryDx=0;entryDy=0;entryPerimeter=0;" parent="1" edge="1">
          <mxGeometry width="50" height="50" relative="1" as="geometry">
            <mxPoint x="839" y="483.79" as="sourcePoint" />
            <mxPoint x="1030" y="482.79" as="targetPoint" />
          </mxGeometry>
        </mxCell>
        <mxCell id="GVi6nuNIdep9bKtDtt-A-1" value="" style="endArrow=none;html=1;rounded=0;entryX=0;entryY=0.25;entryDx=0;entryDy=0;" edge="1" parent="1" target="wYi5QQP4cXFv1H6Gll4Q-29">
          <mxGeometry width="50" height="50" relative="1" as="geometry">
            <mxPoint x="190" y="220" as="sourcePoint" />
            <mxPoint x="80" y="200" as="targetPoint" />
          </mxGeometry>
        </mxCell>
        <mxCell id="GVi6nuNIdep9bKtDtt-A-2" value="append_sig" style="text;html=1;align=center;verticalAlign=middle;resizable=0;points=[];autosize=1;strokeColor=none;fillColor=none;fontSize=8;" vertex="1" parent="1">
          <mxGeometry x="195" y="200" width="60" height="20" as="geometry" />
        </mxCell>
        <mxCell id="GVi6nuNIdep9bKtDtt-A-3" value="" style="endArrow=none;html=1;rounded=0;" edge="1" parent="1">
          <mxGeometry width="50" height="50" relative="1" as="geometry">
            <mxPoint x="330" y="200" as="sourcePoint" />
            <mxPoint x="330" y="160" as="targetPoint" />
          </mxGeometry>
        </mxCell>
        <mxCell id="GVi6nuNIdep9bKtDtt-A-4" value="byte" style="text;html=1;align=center;verticalAlign=middle;resizable=0;points=[];autosize=1;strokeColor=none;fillColor=none;fontSize=8;rotation=90;" vertex="1" parent="1">
          <mxGeometry x="320" y="165" width="40" height="20" as="geometry" />
        </mxCell>
        <mxCell id="GVi6nuNIdep9bKtDtt-A-5" value=". . ." style="text;html=1;align=center;verticalAlign=middle;resizable=0;points=[];autosize=1;strokeColor=none;fillColor=none;" vertex="1" parent="1">
          <mxGeometry x="155" y="201" width="40" height="30" as="geometry" />
        </mxCell>
        <mxCell id="GVi6nuNIdep9bKtDtt-A-6" value=". . ." style="text;html=1;align=center;verticalAlign=middle;resizable=0;points=[];autosize=1;strokeColor=none;fillColor=none;rotation=90;" vertex="1" parent="1">
          <mxGeometry x="314" y="131.5" width="40" height="30" as="geometry" />
        </mxCell>
        <mxCell id="GVi6nuNIdep9bKtDtt-A-7" value="" style="endArrow=none;html=1;rounded=0;" edge="1" parent="1">
          <mxGeometry width="50" height="50" relative="1" as="geometry">
            <mxPoint x="570" y="254" as="sourcePoint" />
            <mxPoint x="550" y="254" as="targetPoint" />
          </mxGeometry>
        </mxCell>
        <mxCell id="GVi6nuNIdep9bKtDtt-A-8" value="error =&amp;gt; dp&amp;nbsp;&amp;nbsp;" style="text;html=1;align=center;verticalAlign=middle;resizable=0;points=[];autosize=1;strokeColor=none;fillColor=none;fontSize=8;" vertex="1" parent="1">
          <mxGeometry x="515" y="250" width="70" height="20" as="geometry" />
        </mxCell>
        <mxCell id="GVi6nuNIdep9bKtDtt-A-9" value=". . ." style="text;html=1;align=center;verticalAlign=middle;resizable=0;points=[];autosize=1;strokeColor=none;fillColor=none;" vertex="1" parent="1">
          <mxGeometry x="516" y="235.73" width="40" height="30" as="geometry" />
        </mxCell>
      </root>
    </mxGraphModel>
  </diagram>
</mxfile>
